<svg width="570" height="240" viewBox="0 0 570 240" fill="none" xmlns="http://www.w3.org/2000/svg">
<g clip-path="url(#clip0_162_1268)">
<path d="M173.848 130.39C173.843 130.361 173.832 130.335 173.826 130.308C173.82 130.287 173.816 130.267 173.81 130.247C173.784 130.171 173.75 130.097 173.706 130.031C173.7 130.022 173.692 130.016 173.686 130.007C173.643 129.95 173.594 129.899 173.539 129.852C173.522 129.838 173.506 129.825 173.488 129.813C173.472 129.801 173.46 129.787 173.444 129.778C173.389 129.743 173.33 129.715 173.27 129.694L147.833 120.648L131.853 18.0513C131.848 18.023 131.838 17.9965 131.831 17.9691C131.825 17.9484 131.821 17.9285 131.815 17.9087C131.789 17.8322 131.755 17.7585 131.711 17.6923C131.705 17.6838 131.698 17.6772 131.691 17.6687C131.648 17.6111 131.599 17.5601 131.544 17.5138C131.527 17.4996 131.511 17.4864 131.493 17.4741C131.478 17.4628 131.465 17.4486 131.449 17.4392C131.394 17.4051 131.336 17.3768 131.277 17.356C131.276 17.356 131.276 17.3551 131.275 17.3551L105.43 8.165C105.251 8.10076 105.057 8.09698 104.875 8.15178L57.1403 22.6823C57.1308 22.6851 57.1233 22.6917 57.1148 22.6945C57.04 22.72 56.9672 22.7541 56.902 22.7985C56.8972 22.8013 56.8916 22.8041 56.8868 22.807C56.8216 22.8533 56.7639 22.9109 56.7128 22.9751C56.7024 22.9883 56.692 23.0006 56.6825 23.0148C56.6381 23.0771 56.5984 23.1423 56.57 23.217L0.0526218 173.519C0.0280314 173.583 0.0138446 173.651 0.0053325 173.718C0.00249514 173.737 0.00344092 173.756 0.00154935 173.776C-0.00128801 173.828 -0.000342223 173.879 0.0053325 173.93C0.00722407 173.942 0.00438671 173.955 0.00627828 173.966L4.81466 204.84C4.86478 205.161 5.0861 205.428 5.39253 205.538L31.2371 214.729C31.239 214.73 31.2418 214.73 31.2447 214.73C31.3279 214.758 31.414 214.715 31.501 214.718C31.5123 214.719 31.5227 214.667 31.5341 214.667C31.5379 214.667 31.5416 214.667 31.5464 214.667C31.5587 214.667 31.57 214.721 31.5823 214.72C31.6012 214.719 31.6201 214.706 31.6391 214.705C31.6911 214.699 31.7403 214.667 31.7885 214.667C31.7904 214.667 31.7913 214.667 31.7923 214.667L89.7576 197.057L94.9008 230.098C94.951 230.419 95.1732 230.696 95.4787 230.805L121.322 239.999C121.33 240.002 121.338 239.968 121.347 239.97C121.436 239.999 121.527 239.984 121.619 239.984C121.622 239.984 121.627 239.984 121.632 239.984C121.717 239.984 121.797 239.984 121.876 239.984C121.877 239.984 121.877 239.984 121.878 239.984L163.674 227.277C164.096 227.149 164.359 226.738 164.291 226.303L156.573 176.751L179.226 169.858C179.648 169.729 179.911 169.311 179.843 168.876L173.848 130.39ZM170.148 130.461L150.308 136.5L148.224 122.664L170.148 130.461ZM105.112 9.92876L128.152 18.1222L83.2639 31.7873L60.2226 23.5939L105.112 9.92876ZM57.9215 24.6539L82.0968 33.2507L81.7222 34.2454L26.2017 181.896L13.6672 177.438L2.02837 173.298L57.9215 24.6539ZM6.48397 204.047L1.98581 175.163L17.806 180.789L25.9312 183.678L30.4303 212.562L6.48397 204.047ZM96.5701 229.324L91.4695 196.574L113.065 190L120.516 237.838L96.5701 229.324ZM155.32 175.288C154.898 175.416 154.635 175.835 154.703 176.27L162.421 225.826L122.338 238.027L114.658 188.721C114.631 188.547 114.55 188.389 114.433 188.261C114.423 188.25 114.415 188.237 114.404 188.225C114.386 188.208 114.362 188.2 114.342 188.184C114.314 188.16 114.287 188.122 114.254 188.122H114.378V188.099C114.378 188.058 114.183 188.034 114.112 188.011C114.09 188.004 114.037 188.003 114.015 187.998C113.962 187.985 113.895 187.98 113.841 187.977C113.827 187.976 113.805 187.971 113.791 187.971C113.783 187.971 113.769 187.975 113.761 187.975C113.684 187.977 113.605 187.986 113.53 188.009L90.2097 195.027C90.0906 195.063 89.9875 195.127 89.8976 195.203L32.2529 212.751L27.6365 183.115L73.3208 61.622L83.9193 33.4386L130.259 19.3323L148.656 137.741L148.617 137.777C148.617 137.778 148.617 137.778 148.617 137.779V137.782C148.617 137.805 148.674 137.825 148.68 137.846C148.69 137.886 148.72 137.927 148.735 137.963C148.745 137.991 148.773 138.015 148.787 138.043C148.802 138.072 148.82 138.103 148.838 138.132C148.854 138.157 148.88 138.178 148.899 138.202C148.919 138.227 148.939 138.254 148.962 138.277C148.988 138.304 149.021 138.39 149.051 138.412C149.072 138.427 149.09 138.526 149.112 138.526H149.113L149.114 138.461C149.179 138.502 149.248 138.497 149.319 138.52C149.34 138.527 149.363 138.515 149.386 138.52C149.437 138.532 149.489 138.531 149.542 138.534C149.557 138.535 149.571 138.536 149.585 138.536C149.595 138.536 149.604 138.529 149.614 138.529C149.691 138.527 149.768 138.517 149.843 138.494L172.255 131.672L177.975 168.392L155.32 175.288Z" fill="#000593"/>
<path d="M99.177 88.0633C99.1353 87.6429 98.8015 87.3104 98.3797 87.2698C97.9597 87.232 97.5672 87.4918 97.4462 87.897C96.7614 90.1794 75.2457 140.905 63.9644 167.409C63.8206 167.745 63.9001 168.135 64.163 168.39C64.3323 168.555 64.5546 168.641 64.7806 168.641C64.9064 168.641 65.0331 168.614 65.1513 168.56C65.3774 168.456 87.8389 158.106 92.0486 156.528C97.1416 154.686 102.524 152.898 108.047 151.217C108.469 151.088 108.732 150.67 108.664 150.234L100.021 94.7405C99.6924 92.6338 99.4087 90.3873 99.177 88.0633ZM91.4348 154.866C87.8805 156.199 72.2258 163.36 66.4915 165.993C71.2072 154.91 92.2585 105.394 97.8141 91.7854C97.955 92.8888 98.1063 93.9667 98.269 95.0106L106.794 149.747C101.501 151.372 96.3396 153.092 91.4348 154.866Z" fill="#000593"/>
<path d="M322.704 119.842C322.702 119.724 322.702 119.607 322.7 119.488C322.684 118.505 322.657 117.506 322.614 116.486C322.613 116.463 322.613 116.44 322.611 116.417C322.522 114.331 322.376 112.168 322.174 109.933C322.147 109.635 322.116 109.331 322.086 109.03C322.011 108.243 321.93 107.45 321.842 106.645C321.798 106.253 321.752 105.857 321.705 105.461C321.617 104.718 321.524 103.967 321.425 103.21C321.371 102.79 321.316 102.372 321.258 101.948C321.148 101.151 321.03 100.343 320.908 99.5302C320.851 99.1504 320.797 98.7744 320.738 98.3899C320.552 97.1949 320.356 95.9876 320.144 94.7585C316.67 74.6174 311.051 59.0723 303.458 48.5738C299.94 43.4261 295.999 39.7475 291.74 37.6398C291.282 37.4141 290.817 37.2053 290.35 37.005C290.231 36.954 290.11 36.9039 289.991 36.8548C289.556 36.6743 289.117 36.5024 288.674 36.3437C288.637 36.3305 288.601 36.3154 288.565 36.3031C288.072 36.1283 287.575 35.9705 287.073 35.8222C286.986 35.7967 286.896 35.7712 286.808 35.7467C286.322 35.6087 285.832 35.4802 285.339 35.3659C285.323 35.3622 285.307 35.3584 285.291 35.3537C284.753 35.2308 284.212 35.125 283.668 35.0325C283.618 35.024 283.566 35.0164 283.516 35.0079C283.279 34.9692 283.043 34.9266 282.804 34.8936C282.555 34.8586 282.301 34.8322 282.049 34.8038C281.971 34.7944 281.892 34.784 281.814 34.7755C281.3 34.7207 280.781 34.6763 280.256 34.647C280.117 34.6385 279.977 34.6357 279.838 34.63C279.453 34.613 279.065 34.6026 278.675 34.5988C278.576 34.5979 278.478 34.5903 278.379 34.5903C278.211 34.5903 278.041 34.5922 277.848 34.5951C277.374 34.6149 276.904 34.6536 276.439 34.7009C276.319 34.7131 276.201 34.7273 276.082 34.7415C275.924 34.7604 275.762 34.7745 275.606 34.7963C275.408 34.8237 275.215 34.8634 275.019 34.8964C274.887 34.9191 274.754 34.9389 274.621 34.9644C274.21 35.0419 273.802 35.1307 273.398 35.2318C273.345 35.245 273.291 35.2554 273.238 35.2686C272.778 35.3877 272.325 35.5218 271.877 35.672C271.765 35.7089 271.655 35.7533 271.544 35.792C271.224 35.9054 270.905 36.0234 270.59 36.1519C270.421 36.2209 270.255 36.2955 270.087 36.3692C269.834 36.4807 269.582 36.5978 269.332 36.7197C269.153 36.8076 268.974 36.8973 268.796 36.9899C268.551 37.1184 268.31 37.2553 268.069 37.3942C267.905 37.4887 267.741 37.5794 267.58 37.6786C267.193 37.9157 266.81 38.1641 266.434 38.4287C266.429 38.4315 266.425 38.4343 266.42 38.4372C266.117 38.6516 265.819 38.8821 265.524 39.1221C265.46 39.1731 265.397 39.2241 265.335 39.277C265.057 39.5085 264.783 39.7512 264.514 40.0054C264.441 40.0743 264.37 40.1461 264.297 40.217C264.094 40.4154 263.893 40.6204 263.696 40.832C263.608 40.9265 263.518 41.0181 263.431 41.1145C263.21 41.3582 262.995 41.6133 262.781 41.8731C262.727 41.9392 262.669 41.9996 262.615 42.0667C262.53 42.1725 262.448 42.2868 262.364 42.3955C262.334 42.4351 262.303 42.4748 262.273 42.5145C262.117 42.7186 261.963 42.9264 261.811 43.1408C261.786 43.1749 261.762 43.2098 261.739 43.2438C261.307 43.855 260.891 44.5041 260.488 45.1899C260.41 45.3231 260.33 45.4544 260.254 45.5905C260.171 45.7369 260.089 45.888 260.007 46.0382C259.91 46.214 259.814 46.3916 259.719 46.572C259.647 46.7109 259.575 46.8516 259.504 46.9933C259.402 47.1955 259.3 47.4005 259.2 47.6074C259.136 47.7406 259.073 47.8729 259.009 48.008C258.899 48.2432 258.791 48.4822 258.684 48.7231C258.633 48.8374 258.582 48.9498 258.532 49.0651C258.375 49.425 258.222 49.7906 258.072 50.1647C257.89 50.5993 257.718 51.049 257.55 51.5034C257.505 51.6233 257.462 51.7433 257.418 51.8642C257.267 52.2856 257.12 52.7145 256.979 53.1528C256.944 53.2633 256.91 53.3767 256.875 53.4891C256.759 53.8613 256.648 54.2402 256.539 54.6247C256.477 54.8419 256.418 55.0621 256.358 55.2822C256.289 55.542 256.223 55.8065 256.158 56.0719C256.107 56.2741 256.053 56.4697 256.004 56.6747C256.001 56.6917 256.001 56.7087 255.998 56.7257C255.262 59.88 254.759 63.3858 254.492 67.2204C254.49 67.2449 254.487 67.2695 254.487 67.2931C254.425 68.2038 254.375 69.1315 254.339 70.0781C254.036 78.0127 254.851 87.6553 256.764 98.7366C258.606 109.42 261.017 118.703 263.929 126.327C266.841 133.969 270.314 140.422 274.257 145.51C278.197 150.493 282.263 154.052 286.342 156.085C290.094 157.963 294.071 158.914 298.164 158.914C298.536 158.914 298.91 158.907 299.31 158.89C303.933 158.573 308.021 157.174 311.462 154.732C314.909 152.281 317.594 148.226 319.427 142.718C320.063 141.077 320.596 139.29 321.048 137.39L321.063 137.356C321.085 137.307 321.101 137.256 321.113 137.205C321.184 136.903 321.245 136.586 321.311 136.277C321.327 136.2 321.344 136.123 321.36 136.045C322.175 132.153 322.623 127.739 322.701 122.82C322.703 122.724 322.704 122.627 322.705 122.531C322.715 121.651 322.715 120.755 322.704 119.842ZM300.733 47.8171C301.165 48.3868 301.589 48.9782 302.009 49.5922C309.457 59.8895 314.971 75.1871 318.399 95.0608C318.608 96.2719 318.801 97.4622 318.984 98.6393C319.043 99.0125 319.094 99.379 319.15 99.7494C319.27 100.551 319.387 101.348 319.495 102.134C319.554 102.555 319.608 102.971 319.662 103.387C319.758 104.122 319.85 104.85 319.935 105.57C319.983 105.974 320.03 106.377 320.075 106.778C320.159 107.537 320.236 108.288 320.308 109.031C320.341 109.361 320.375 109.693 320.405 110.019C320.498 111.04 320.58 112.047 320.648 113.035C320.651 113.068 320.654 113.102 320.656 113.135C320.731 114.214 320.79 115.272 320.836 116.312C320.841 116.415 320.843 116.514 320.847 116.616C320.885 117.53 320.913 118.428 320.928 119.311C320.932 119.487 320.932 119.659 320.935 119.833C320.946 120.662 320.948 121.48 320.938 122.282C320.936 122.428 320.935 122.572 320.934 122.717C320.919 123.601 320.895 124.472 320.857 125.323C320.855 125.361 320.855 125.399 320.852 125.437C320.681 129.154 320.276 132.55 319.639 135.621C319.626 135.682 319.612 135.744 319.6 135.805C319.525 136.155 319.439 136.49 319.359 136.832L316.286 143.876C317.617 135.403 318.607 125.557 316.196 111.584C312.721 91.4426 307.102 75.8975 299.511 65.399C295.992 60.2513 292.05 56.5726 287.792 54.465C284.979 53.0801 281.973 52.1562 278.856 51.7188C277.258 51.4949 275.597 51.3976 273.9 51.4202C273.142 51.4514 272.387 51.5194 271.656 51.6214C268.33 52.0881 265.249 53.3059 262.521 55.2274C262.514 55.2321 262.477 55.2567 262.472 55.2614C261.111 56.2193 259.83 57.4399 258.667 58.89C258.086 59.6146 257.489 60.4091 256.927 61.2858C257.186 59.608 257.502 58.0161 257.873 56.5112C257.936 56.2599 257.998 56.0077 258.064 55.7602C258.122 55.5429 258.181 55.3285 258.24 55.1159C258.344 54.7465 258.451 54.3819 258.564 54.0229C258.602 53.8991 258.64 53.7754 258.68 53.6526C258.809 53.252 258.943 52.86 259.081 52.4736C259.125 52.3526 259.168 52.2327 259.212 52.1136C259.373 51.6781 259.539 51.2483 259.712 50.8326C259.854 50.4774 259.999 50.1316 260.147 49.7897C260.194 49.6801 260.242 49.5743 260.291 49.4666C260.393 49.237 260.496 49.0084 260.6 48.7854C260.659 48.6598 260.717 48.537 260.777 48.4142C260.873 48.2139 260.971 48.0165 261.07 47.8209C261.134 47.6934 261.2 47.5649 261.265 47.4392C261.359 47.2579 261.456 47.0803 261.552 46.9036C261.623 46.7742 261.692 46.6429 261.764 46.5163C261.853 46.3594 261.943 46.2083 262.033 46.0562C262.214 45.7473 262.4 45.4459 262.587 45.1531C262.632 45.0832 262.676 45.0114 262.721 44.9424C262.845 44.7544 262.97 44.5721 263.097 44.3907C263.14 44.3283 263.184 44.265 263.227 44.2036C263.358 44.0204 263.489 43.8409 263.622 43.6652C263.661 43.6132 263.699 43.5631 263.739 43.5121C263.867 43.3468 263.995 43.1843 264.125 43.0246C264.322 42.7837 264.521 42.5495 264.725 42.3237C264.809 42.2292 264.895 42.1404 264.98 42.0488C265.155 41.8617 265.333 41.6794 265.511 41.5037C265.58 41.4375 265.647 41.3686 265.715 41.3034C265.951 41.0795 266.191 40.8669 266.434 40.6629C266.505 40.6024 266.577 40.5448 266.649 40.4862C266.889 40.2926 267.13 40.1055 267.373 39.9326C267.395 39.9166 267.418 39.8977 267.442 39.8816C267.8 39.6284 268.166 39.3913 268.537 39.1646C268.645 39.0985 268.755 39.0389 268.864 38.9747C269.129 38.8198 269.396 38.6705 269.666 38.5288C269.796 38.4608 269.926 38.3965 270.057 38.3323C270.322 38.2019 270.588 38.0782 270.858 37.961C270.983 37.9062 271.108 37.8514 271.234 37.7995C271.55 37.6701 271.869 37.5501 272.192 37.4377C272.271 37.4103 272.349 37.3782 272.429 37.3517C272.842 37.2147 273.26 37.09 273.683 36.9804C273.737 36.9663 273.793 36.9559 273.847 36.9426C274.206 36.8529 274.569 36.7735 274.936 36.7046C275.071 36.6791 275.209 36.6573 275.346 36.6347C275.646 36.5846 275.95 36.5393 276.256 36.5024C276.381 36.4873 276.507 36.4712 276.633 36.459C277.051 36.4164 277.471 36.3815 277.897 36.3635C278.134 36.3598 278.369 36.3645 278.606 36.3654C279.024 36.3683 279.441 36.3796 279.855 36.3994C279.942 36.4032 280.03 36.4051 280.117 36.4108C280.626 36.4391 281.131 36.4807 281.632 36.5355C281.691 36.5421 281.75 36.5496 281.807 36.5563C282.29 36.612 282.768 36.6772 283.243 36.7556C283.278 36.7613 283.313 36.7669 283.348 36.7726C284.361 36.9445 285.357 37.1722 286.336 37.4509C286.409 37.4717 286.482 37.4925 286.555 37.5132C287.034 37.654 287.509 37.8052 287.977 37.9705C288 37.979 288.024 37.9884 288.048 37.9969C288.475 38.15 288.899 38.3162 289.319 38.4891C289.428 38.5345 289.535 38.5789 289.643 38.6252C290.085 38.815 290.524 39.0115 290.956 39.225C291.951 39.7172 292.93 40.3048 293.891 40.985C296.292 42.6883 298.58 44.9717 300.733 47.8171ZM310.433 153.291C307.263 155.542 303.48 156.832 299.212 157.125C295.023 157.297 290.959 156.418 287.134 154.504C283.289 152.587 279.425 149.192 275.652 144.422C271.822 139.478 268.434 133.179 265.584 125.698C262.713 118.181 260.332 109.009 258.51 98.4381C256.619 87.4777 255.811 77.9598 256.11 70.148C256.146 69.2099 256.195 68.2926 256.257 67.3923C256.926 64.22 258.473 61.9631 260.05 59.9991C261.109 58.6784 262.267 57.5721 263.522 56.6888C266.038 54.9175 268.858 53.8028 271.903 53.3758C272.576 53.2813 273.274 53.2189 273.95 53.1906C275.536 53.1641 277.102 53.2624 278.61 53.4731C281.54 53.884 284.366 54.7522 287.007 56.0531C290.988 58.0237 294.702 61.5049 298.06 66.4183C305.507 76.7156 311.021 92.0132 314.449 111.886C317.2 127.831 315.51 137.888 313.875 147.614C313.713 148.575 313.554 149.53 313.399 150.481C312.49 151.591 311.501 152.532 310.433 153.291Z" fill="#6AB6E8"/>
<path d="M371.498 92.0717C368.375 73.9684 362.748 57.8735 354.776 44.2367C346.572 30.2022 335.539 19.0471 321.974 11.0776C309.129 3.72686 293.828 0 276.496 0C275.357 0 274.194 0.01606 273.012 0.0491246C245.973 1.54837 226.295 11.7502 214.519 30.3817C210.381 37.0966 207.342 44.5739 205.401 52.7749C205.367 52.8401 205.337 52.909 205.32 52.9846L201.371 69.8079C199.748 76.7241 198.917 84.2099 198.879 92.2115C198.841 100.212 199.596 108.727 201.144 117.702C203.728 131.799 207.703 144.581 212.955 155.694C218.225 166.848 225.182 176.772 233.624 185.182C234.355 185.928 235.098 186.652 235.849 187.366C236.007 187.516 236.165 187.667 236.325 187.816C237.06 188.505 237.803 189.18 238.557 189.837C238.686 189.951 238.818 190.059 238.948 190.172C239.635 190.763 240.329 191.342 241.032 191.908C241.17 192.019 241.306 192.133 241.444 192.242C242.207 192.848 242.978 193.436 243.758 194.013C243.961 194.164 244.166 194.312 244.372 194.461C245.113 194.997 245.859 195.524 246.617 196.034C246.771 196.138 246.927 196.24 247.083 196.344C247.776 196.804 248.478 197.251 249.185 197.689C249.467 197.863 249.747 198.037 250.031 198.208C250.77 198.653 251.513 199.088 252.266 199.508C252.603 199.696 252.943 199.877 253.283 200.061C253.776 200.327 254.272 200.589 254.771 200.844C255.286 201.108 255.803 201.367 256.324 201.621C256.872 201.888 257.423 202.15 257.978 202.405C258.478 202.634 258.982 202.857 259.489 203.076C259.778 203.201 260.069 203.323 260.358 203.445C261.347 203.86 262.345 204.257 263.354 204.635C263.518 204.696 263.682 204.76 263.846 204.82C265.789 205.533 267.769 206.177 269.785 206.751C269.809 206.758 269.832 206.764 269.855 206.771C273.216 207.726 276.678 208.487 280.238 209.051C280.403 209.077 280.568 209.104 280.734 209.131C281.134 209.192 281.527 209.265 281.93 209.322C282.19 209.358 282.458 209.383 282.72 209.417C283.487 209.519 284.257 209.613 285.032 209.698C285.478 209.746 285.929 209.787 286.378 209.83C287.082 209.897 287.792 209.957 288.505 210.011C288.809 210.034 289.111 210.06 289.418 210.08C290.451 210.148 291.494 210.199 292.544 210.238C292.799 210.247 293.054 210.258 293.309 210.265C294.421 210.299 295.536 210.324 296.663 210.324C296.663 210.324 296.663 210.324 296.664 210.324C297.739 210.324 298.837 210.306 299.952 210.275C300.815 210.228 301.673 210.17 302.525 210.106C302.62 210.099 302.712 210.088 302.807 210.081C305.241 209.893 307.625 209.638 309.917 209.317C323.035 207.479 334.157 203.397 342.977 197.182C347.268 194.16 351.103 190.571 354.373 186.514C354.683 186.129 354.985 185.736 355.287 185.34C355.314 185.305 355.344 185.269 355.371 185.233C355.692 184.81 356.006 184.381 356.317 183.947C356.399 183.832 356.485 183.718 356.567 183.602C356.836 183.221 357.098 182.833 357.358 182.445C357.466 182.284 357.578 182.127 357.684 181.966C358.043 181.421 358.394 180.869 358.733 180.312C362.756 173.842 365.735 166.558 367.588 158.66L371.536 141.836C371.546 141.795 371.549 141.755 371.552 141.714C372.284 138.588 372.851 135.361 373.242 132.03C374.622 120.231 374.036 106.788 371.498 92.0717ZM366.08 157.315L365.86 158.253C364.05 165.963 361.145 173.07 357.221 179.381C356.888 179.926 356.547 180.463 356.199 180.993C356.118 181.116 356.034 181.235 355.952 181.356C355.671 181.776 355.388 182.195 355.097 182.605C355.062 182.654 355.027 182.701 354.993 182.749C344.371 197.631 327.163 206.182 303.772 208.218C302.485 208.33 301.186 208.429 299.875 208.501C299.069 208.522 298.267 208.535 297.47 208.54C297.306 208.541 297.145 208.539 296.981 208.539C296.331 208.54 295.682 208.539 295.039 208.53C294.928 208.528 294.817 208.524 294.705 208.522C281.062 208.273 268.709 205.535 257.737 200.331C257.731 200.328 257.725 200.325 257.719 200.322C255.923 199.47 254.167 198.547 252.446 197.563C252.131 197.383 251.817 197.2 251.505 197.015C251.064 196.755 250.623 196.495 250.188 196.226C249.512 195.809 248.842 195.38 248.178 194.94C247.849 194.723 247.523 194.499 247.197 194.276C246.659 193.91 246.126 193.536 245.597 193.154C245.359 192.982 245.118 192.815 244.881 192.64C244.147 192.099 243.422 191.542 242.704 190.974C242.482 190.799 242.262 190.62 242.041 190.442C241.373 189.902 240.711 189.353 240.057 188.789C239.96 188.705 239.863 188.626 239.768 188.543C239.028 187.899 238.3 187.235 237.578 186.56C237.4 186.394 237.222 186.226 237.046 186.057C236.316 185.364 235.592 184.659 234.882 183.935C226.579 175.662 219.74 165.905 214.558 154.936C209.37 143.962 205.443 131.327 202.888 117.391C202.701 116.303 202.525 115.223 202.361 114.149C201.213 106.634 200.642 99.4631 200.649 92.6707C200.656 84.908 201.418 77.6395 202.934 70.9189C202.884 72.078 202.932 73.2495 202.917 74.4322C202.913 74.7667 203 75.1096 203 75.4468C203 75.5696 203 75.6944 203 75.8172C203 76.9962 202.934 78.1855 202.967 79.3863C202.979 79.8633 202.953 80.3413 202.971 80.8222C202.991 81.3342 202.992 81.8481 203.018 82.364C203.058 83.1679 203.095 83.9766 203.15 84.79C203.177 85.1962 203.202 85.6033 203.233 86.0115C203.298 86.8721 203.37 87.7374 203.451 88.6075C203.484 88.958 203.517 89.3085 203.553 89.6599C203.664 90.7548 203.783 91.8544 203.92 92.9654C203.929 93.0344 203.938 93.1043 203.948 93.1733C204.083 94.2597 204.234 95.3555 204.395 96.457C204.439 96.7556 204.483 97.055 204.528 97.3545C204.705 98.5222 204.89 99.6945 205.094 100.879C205.578 103.522 206.112 106.119 206.693 108.667C209.213 119.71 212.637 129.841 216.905 138.87C221.847 149.328 228.27 158.704 236.008 166.765C236.524 167.302 237.046 167.834 237.573 168.359C238.304 169.106 239.049 169.83 239.8 170.544C239.958 170.694 240.115 170.845 240.274 170.992C241.01 171.682 241.754 172.357 242.508 173.015C242.635 173.126 242.765 173.234 242.892 173.344C243.584 173.939 244.282 174.522 244.988 175.09C245.123 175.199 245.255 175.31 245.389 175.416C246.154 176.025 246.929 176.616 247.711 177.193C247.911 177.341 248.111 177.485 248.312 177.631C249.062 178.174 249.818 178.708 250.584 179.223C250.725 179.319 250.867 179.41 251.008 179.505C251.713 179.974 252.426 180.427 253.144 180.872C253.418 181.042 253.691 181.212 253.969 181.378C254.713 181.827 255.464 182.265 256.222 182.69C256.549 182.872 256.88 183.048 257.209 183.225C257.717 183.499 258.227 183.768 258.741 184.032C259.206 184.271 259.673 184.507 260.144 184.737C260.738 185.027 261.336 185.311 261.939 185.587C262.428 185.811 262.92 186.029 263.415 186.244C263.726 186.379 264.039 186.509 264.352 186.64C265.308 187.042 266.274 187.425 267.248 187.791C267.437 187.862 267.627 187.935 267.816 188.004C269.739 188.71 271.699 189.346 273.694 189.917C273.744 189.931 273.794 189.945 273.843 189.959C277.171 190.903 280.597 191.656 284.12 192.218C284.32 192.249 284.519 192.282 284.719 192.313C285.106 192.373 285.487 192.444 285.877 192.498C286.129 192.533 286.39 192.558 286.644 192.592C287.424 192.696 288.209 192.791 288.999 192.878C289.429 192.924 289.863 192.964 290.297 193.005C291.022 193.075 291.751 193.136 292.483 193.191C292.775 193.213 293.064 193.237 293.358 193.257C294.397 193.326 295.446 193.376 296.501 193.415C296.751 193.424 297.003 193.391 297.255 193.399C298.367 193.432 299.484 193.415 300.612 193.415C300.613 193.415 300.614 193.415 300.614 193.415C300.615 193.415 300.615 193.415 300.615 193.415C301.688 193.415 302.785 193.44 303.899 193.409C305.029 193.347 306.14 193.285 307.243 193.196C309.51 193.01 311.731 192.783 313.865 192.483C326.981 190.646 338.105 186.568 346.925 180.354C351.215 177.332 355.049 173.745 358.321 169.688C358.635 169.298 358.942 168.9 359.249 168.499C359.27 168.47 359.293 168.442 359.315 168.414C359.648 167.977 359.973 167.531 360.295 167.081C360.366 166.983 360.439 166.887 360.509 166.788C360.794 166.384 361.072 165.972 361.348 165.56C361.441 165.422 361.536 165.288 361.627 165.149C361.987 164.602 362.339 164.049 362.68 163.489C363.013 162.954 363.337 162.411 363.656 161.865C363.75 161.704 363.841 161.54 363.933 161.378C364.155 160.99 364.376 160.6 364.591 160.205C364.696 160.013 364.798 159.819 364.901 159.626C365.101 159.251 365.299 158.874 365.493 158.493C365.591 158.301 365.687 158.108 365.783 157.916C365.88 157.713 365.983 157.515 366.08 157.315ZM371.479 131.823C371.066 135.345 370.455 138.75 369.655 142.034C369.558 142.435 369.453 142.832 369.35 143.228C369.159 143.963 368.957 144.691 368.746 145.413C368.638 145.785 368.531 146.156 368.417 146.524C368.285 146.952 368.148 147.378 368.009 147.802C367.873 148.211 367.734 148.617 367.593 149.022C367.467 149.386 367.343 149.752 367.211 150.112C366.952 150.819 366.682 151.518 366.402 152.212C366.283 152.505 366.161 152.795 366.039 153.086C365.818 153.613 365.593 154.134 365.36 154.653C365.25 154.898 365.142 155.146 365.028 155.39C364.689 156.125 364.339 156.853 363.975 157.571C363.898 157.721 363.818 157.868 363.74 158.019C363.426 158.628 363.103 159.231 362.771 159.826C362.66 160.025 362.55 160.225 362.436 160.422C362.026 161.143 361.606 161.858 361.17 162.56C360.836 163.107 360.493 163.645 360.143 164.177C360.075 164.28 360.004 164.38 359.935 164.482C359.641 164.923 359.345 165.361 359.04 165.791C359.015 165.826 358.99 165.86 358.965 165.895C348.517 180.555 331.692 189.084 308.862 191.299C308.848 191.3 308.835 191.301 308.821 191.302C308.584 191.325 308.343 191.343 308.104 191.364C306.693 191.491 305.266 191.599 303.825 191.679C303.02 191.701 302.22 191.714 301.423 191.718C301.246 191.719 301.071 191.717 300.894 191.717C300.263 191.718 299.634 191.717 299.009 191.708C298.863 191.706 298.718 191.701 298.572 191.698C297.896 191.686 297.22 191.67 296.55 191.644C296.497 191.643 296.446 191.64 296.394 191.638C294.832 191.577 293.287 191.485 291.759 191.357C287.851 191.031 284.058 190.487 280.381 189.726C279.647 189.573 278.916 189.412 278.19 189.242C272.426 187.896 266.959 185.999 261.796 183.56C261.722 183.525 261.647 183.49 261.574 183.454C259.831 182.624 258.127 181.729 256.456 180.776C256.099 180.572 255.744 180.366 255.391 180.156C254.98 179.913 254.568 179.671 254.161 179.42C253.47 178.993 252.785 178.554 252.106 178.105C251.793 177.898 251.484 177.685 251.174 177.474C250.617 177.094 250.063 176.707 249.516 176.311C249.291 176.149 249.064 175.991 248.84 175.826C248.101 175.28 247.37 174.719 246.645 174.147C246.429 173.976 246.214 173.802 245.999 173.628C245.326 173.083 244.657 172.529 243.998 171.96C243.905 171.88 243.812 171.804 243.719 171.723C242.978 171.078 242.248 170.413 241.525 169.737C241.348 169.572 241.172 169.405 240.997 169.238C240.267 168.544 239.542 167.839 238.831 167.112C232.604 160.908 227.201 153.869 222.702 146.109C221.202 143.522 219.803 140.855 218.507 138.114C213.32 127.139 209.393 114.505 206.838 100.568C206.664 99.5594 206.503 98.5581 206.349 97.5604C206.3 97.2449 206.255 96.9313 206.209 96.6167C206.107 95.9289 206.01 95.244 205.917 94.562C205.869 94.2039 205.821 93.8468 205.775 93.4907C205.691 92.8379 205.613 92.1889 205.539 91.5408C205.499 91.196 205.456 90.8493 205.419 90.5054C205.332 89.7034 205.254 88.907 205.18 88.1144C205.136 87.6316 205.097 87.1517 205.057 86.6718C205.012 86.1173 204.966 85.5627 204.928 85.0129C204.891 84.4876 204.86 83.9662 204.83 83.4447C204.808 83.0857 204.789 82.7277 204.771 82.3706C204.74 81.7707 204.713 81.1717 204.691 80.5775C204.684 80.3791 204.679 80.1836 204.672 79.9861C204.068 60.8757 207.861 44.5626 216.023 31.3188C227.469 13.2088 246.676 3.28284 273.086 1.81855C274.227 1.78738 275.375 1.77132 276.497 1.77132C293.517 1.77132 308.52 5.41976 321.084 12.6099C334.376 20.4198 345.197 31.3613 353.247 45.1313C361.112 58.5858 366.665 74.4804 369.752 92.375C372.26 106.922 372.842 120.195 371.479 131.823Z" fill="#6AB6E8"/>
<path d="M569.984 174.109L568.926 137.556C568.922 137.406 568.879 137.261 568.803 137.131L560.208 122.628C560.203 122.619 560.193 122.612 560.187 122.603C560.143 122.535 560.091 122.47 560.03 122.416C560.025 122.411 560.021 122.405 560.016 122.401C560.016 122.4 560.015 122.4 560.015 122.399C559.95 122.346 559.878 122.306 559.804 122.273C559.782 122.264 559.76 122.255 559.737 122.248C559.661 122.221 559.581 122.201 559.5 122.196C559.489 122.195 559.479 122.197 559.469 122.197C559.418 122.196 559.366 122.196 559.314 122.203L541.699 124.878L538.715 27.7073C538.711 27.558 538.669 27.4125 538.592 27.2831L529.999 12.78C529.993 12.7706 529.983 12.764 529.977 12.7545C529.934 12.6865 529.883 12.6223 529.82 12.5684C529.815 12.5637 529.811 12.558 529.805 12.5533C529.805 12.5533 529.804 12.5524 529.804 12.5514C529.74 12.4976 529.667 12.4579 529.591 12.4248C529.571 12.4163 529.552 12.3899 529.532 12.3823C529.453 12.354 529.37 12.3096 529.286 12.3096C529.281 12.3096 529.277 12.3096 529.272 12.3096C529.215 12.3096 529.159 12.3275 529.102 12.337L474.166 20.6891C473.91 20.7278 473.685 20.8809 473.548 21.0991L389.253 155.623C389.16 155.771 389.261 155.944 389.266 156.119L390.267 185.559C390.267 185.561 390.267 185.562 390.267 185.565C390.267 185.587 390.126 185.607 390.128 185.628C390.133 185.674 390.065 185.72 390.078 185.766C390.084 185.789 390.057 185.812 390.065 185.835C390.08 185.875 390.079 185.916 390.099 185.955C390.104 185.964 390.097 185.974 390.103 185.984L398.693 200.486C398.854 200.758 399.144 200.921 399.452 200.921C399.495 200.921 399.537 200.918 399.581 200.911L485.114 188.296L486.007 219.181C486.007 219.183 486.008 219.184 486.008 219.187C486.009 219.209 486.013 219.229 486.016 219.25C486.021 219.296 486.028 219.342 486.039 219.388C486.046 219.411 486.056 219.433 486.064 219.457C486.08 219.497 486.096 219.538 486.117 219.576C486.122 219.585 486.124 219.596 486.13 219.606L494.723 234.109C494.884 234.381 495.176 234.543 495.485 234.543C495.529 234.543 495.573 234.54 495.619 234.534L543.711 227.232C543.722 227.231 543.731 227.226 543.741 227.224C543.765 227.219 543.788 227.212 543.811 227.204C543.889 227.182 543.963 227.152 544.031 227.111C544.046 227.102 544.062 227.094 544.077 227.085C544.103 227.066 544.126 227.046 544.151 227.026C544.184 226.998 544.214 226.969 544.244 226.938C544.253 226.926 544.262 226.916 544.271 226.905C544.396 226.754 544.475 226.567 544.475 226.358C544.475 226.299 544.471 226.242 544.459 226.188L543.096 179.123L569.237 175.155C569.242 175.154 569.245 175.152 569.25 175.151C569.676 175.086 570.001 174.722 570.001 174.28C570 174.221 569.995 174.164 569.984 174.109ZM536.951 27.9907L539.927 124.947L533.387 126.114L530.219 16.6325L536.951 27.9907ZM399.908 199.074L392.287 186.212L468.157 174.692L484.646 172.188L485.06 186.514L399.908 199.074ZM486.847 187.591C486.892 187.479 486.929 187.359 486.924 187.233L486.383 171.133C486.382 171.098 486.376 171.064 486.371 171.03C486.367 171.003 486.367 170.975 486.361 170.949C486.354 170.921 486.342 170.898 486.333 170.871C486.322 170.839 486.313 170.805 486.298 170.774C486.283 170.744 486.262 170.716 486.244 170.688C486.229 170.665 486.218 170.64 486.201 170.618C486.166 170.574 486.125 170.533 486.081 170.495C486.078 170.492 486.075 170.487 486.07 170.484C486.069 170.483 486.069 170.483 486.068 170.482C485.996 170.423 485.915 170.38 485.83 170.346C485.814 170.34 485.798 170.332 485.781 170.327C485.697 170.3 485.61 170.284 485.522 170.282C485.515 170.282 485.509 170.278 485.503 170.278C485.458 170.278 485.414 170.282 485.369 170.288L391.712 184.507L390.897 156.337L474.833 22.3867L528.378 14.2575L531.645 127.19C531.647 127.254 531.656 127.317 531.67 127.378C531.673 127.39 531.679 127.4 531.683 127.411C531.697 127.46 531.712 127.509 531.735 127.554C531.746 127.577 531.762 127.596 531.775 127.618C531.794 127.65 531.811 127.682 531.835 127.711C531.855 127.736 531.881 127.759 531.904 127.783C531.924 127.802 531.941 127.825 531.963 127.843C531.963 127.844 531.965 127.845 531.966 127.845C531.968 127.847 531.97 127.849 531.971 127.85C531.976 127.853 531.982 127.855 531.987 127.858C532.054 127.91 532.128 127.95 532.207 127.981C532.224 127.988 532.239 127.995 532.256 128.001C532.339 128.027 532.424 128.042 532.511 128.044C532.518 128.044 532.523 128.047 532.53 128.047C532.561 128.047 532.592 128.042 532.624 128.039C532.637 128.038 532.65 128.039 532.663 128.037L558.588 124.101L559.598 159.015L533.459 162.984C533.433 162.988 533.41 162.999 533.384 163.005C533.372 163.009 533.359 163.006 533.345 163.01C533.333 163.013 533.324 163.021 533.313 163.026C533.27 163.041 533.227 163.058 533.186 163.079C533.165 163.091 533.145 163.102 533.123 163.115C533.118 163.118 533.114 163.12 533.109 163.123C533.097 163.131 533.083 163.135 533.073 163.144C533.016 163.184 532.966 163.232 532.92 163.285C532.916 163.288 532.912 163.291 532.908 163.295C532.902 163.302 532.897 163.314 532.889 163.322C532.874 163.342 532.864 163.363 532.851 163.384C532.83 163.416 532.805 163.445 532.789 163.48C532.781 163.498 532.778 163.518 532.771 163.536C532.766 163.55 532.757 163.563 532.752 163.578C532.747 163.595 532.744 163.612 532.74 163.629C532.719 163.707 532.658 163.784 532.658 163.863C532.658 163.87 532.604 163.877 532.604 163.884V163.898C532.604 163.899 532.604 163.9 532.604 163.901L534.02 211.093L487.72 218.126L486.847 187.591ZM495.943 232.695L488.322 219.833L534.525 212.819L535.268 214.074L542.146 225.679L495.943 232.695ZM535.861 211.6L535.257 190.727L534.579 167.263L541.308 178.62L542.592 222.959L535.861 211.6ZM542.645 177.401L535.025 164.541L546.81 162.752L560.05 160.742L567.672 173.602L542.645 177.401ZM561.387 159.523L560.431 126.478L567.162 137.836L568.118 170.88L561.387 159.523Z" fill="#000593"/>
<path d="M483.794 81.5101C483.732 79.3741 483.744 77.2447 483.829 75.1834C483.846 74.7706 483.574 74.4002 483.174 74.2925C482.776 74.1839 482.354 74.3672 482.161 74.7328C481.295 76.3624 478.653 80.9584 476.53 84.6512C475.188 86.9846 474.03 89.0006 473.527 89.9047L439.307 142.968C439.263 143.035 439.234 143.107 439.211 143.179C439.205 143.197 439.2 143.215 439.195 143.234C439.178 143.303 439.168 143.372 439.167 143.441C439.167 143.448 439.166 143.453 439.166 143.46C439.167 143.536 439.18 143.61 439.2 143.682C439.205 143.699 439.21 143.715 439.216 143.732C439.241 143.803 439.271 143.872 439.313 143.935C439.314 143.937 439.314 143.938 439.314 143.94L439.315 143.941C439.353 143.997 439.398 144.048 439.449 144.095C439.463 144.108 439.479 144.117 439.493 144.13C439.519 144.151 439.542 144.173 439.571 144.192C439.58 144.199 439.592 144.2 439.602 144.206C439.648 144.235 439.698 144.255 439.75 144.273C439.774 144.282 439.797 144.366 439.82 144.373C439.894 144.392 439.969 144.477 440.047 144.477C440.047 144.477 439.823 144.477 439.823 144.477V144.383C439.823 144.383 440.042 144.354 440.095 144.344C450.431 142.473 477.614 137.911 484.373 136.885C484.813 136.818 485.164 136.428 485.153 135.982L483.961 87.8623L483.794 81.5101ZM441.899 142.217L475.017 90.8636C475.02 90.8589 475.022 90.8532 475.025 90.8485L475.046 90.8145C475.572 89.8707 476.728 87.8604 478.067 85.5317C479.405 83.2039 480.849 80.692 481.983 78.692C481.982 79.6424 481.995 80.5994 482.022 81.5583L482.206 87.9038L483.392 135.238C476.023 136.385 452.961 140.251 441.899 142.217Z" fill="#000593"/>
</g>
<defs>
<clipPath id="clip0_162_1268">
<rect width="570" height="240" fill="white"/>
</clipPath>
</defs>
</svg>
