<svg width="2052" height="680" viewBox="0 0 2052 680" fill="none" xmlns="http://www.w3.org/2000/svg">
<rect opacity="0.3" width="2051" height="680" fill="url(#paint0_radial_158_1179)"/>
<g opacity="0.8" clip-path="url(#clip0_158_1179)">
<circle cx="1679.96" cy="351.324" r="546.189" transform="rotate(-79.4786 1679.96 351.324)" stroke="#000593"/>
<path opacity="0.3" d="M1772.97 -147.999C2066.17 -93.544 2261.53 174.268 2210.42 449.438C2159.31 724.609 1880.82 904.415 1587.62 849.96C1294.42 795.505 1099.07 527.693 1150.17 252.523C1201.28 -22.6473 1479.77 -202.454 1772.97 -147.999Z" stroke="white" stroke-width="15"/>
<path d="M1765.6 -112.754C2037.59 -62.2377 2219.45 186.462 2171.86 442.683C2124.28 698.905 1865.25 865.72 1593.25 815.204C1321.26 764.687 1139.4 515.988 1186.99 259.766C1234.58 3.54496 1493.61 -163.27 1765.6 -112.754Z" stroke="#6AB6E8"/>
<path d="M1755.65 -59.1704C2001.09 -13.5845 2159.82 209.061 2118.28 432.731C2076.74 656.402 1848.65 807.206 1603.21 761.62C1357.76 716.034 1199.03 493.389 1240.57 269.718C1282.11 46.0477 1510.2 -104.756 1755.65 -59.1704Z" stroke="url(#paint1_linear_158_1179)" stroke-opacity="0.5" stroke-width="110"/>
<path d="M1765.6 -112.754C2037.59 -62.2377 2219.45 186.462 2171.86 442.683C2124.28 698.905 1865.25 865.72 1593.25 815.204C1321.26 764.687 1139.4 515.988 1186.99 259.766C1234.58 3.54496 1493.61 -163.27 1765.6 -112.754Z" stroke="#000593"/>
<path d="M1747.78 -16.8291C1967.59 23.9943 2114.82 223.412 2076.73 428.526C2038.63 633.64 1829.61 766.891 1609.81 726.068C1390 685.244 1242.77 485.827 1280.86 280.713C1318.96 75.5988 1527.98 -57.6526 1747.78 -16.8291Z" stroke="#000593"/>
</g>
<g opacity="0.5" clip-path="url(#clip1_158_1179)">
<circle cx="1927.5" cy="461.612" r="407.293" transform="rotate(-101.607 1927.5 461.612)" stroke="#000593"/>
<path opacity="0.3" d="M1851.85 92.3183C2068.83 47.7531 2277.97 177.379 2319.74 380.745C2361.51 584.11 2220.39 785.679 2003.42 830.244C1786.44 874.809 1577.3 745.183 1535.53 541.817C1493.76 338.452 1634.88 136.883 1851.85 92.3183Z" stroke="white" stroke-width="15"/>
<path d="M1856.3 117.001C2058.38 75.4956 2253.85 196.211 2292.94 386.552C2332.04 576.894 2199.98 764.882 1997.9 806.387C1795.82 847.893 1600.35 727.178 1561.26 536.836C1522.16 346.494 1654.23 158.506 1856.3 117.001Z" stroke="#6AB6E8"/>
<path d="M1864.25 155.693C2047.16 118.125 2219.98 227.662 2254.25 394.5C2288.52 561.337 2172.86 730.127 1989.95 767.695C1807.04 805.263 1634.22 695.726 1599.95 528.889C1565.68 362.052 1681.34 193.261 1864.25 155.693Z" stroke="url(#paint2_linear_158_1179)" stroke-opacity="0.5" stroke-width="80"/>
<path d="M1856.3 117.001C2058.38 75.4956 2253.85 196.211 2292.94 386.552C2332.04 576.894 2199.98 764.882 1997.9 806.387C1795.82 847.893 1600.35 727.178 1561.26 536.836C1522.16 346.494 1654.23 158.506 1856.3 117.001Z" stroke="#000593"/>
<path d="M1861.95 177.291C2025.24 143.751 2182.93 240.142 2214.23 392.501C2245.52 544.86 2138.59 695.605 1975.29 729.145C1812 762.684 1654.3 666.293 1623.01 513.934C1591.72 361.575 1698.65 210.83 1861.95 177.291Z" stroke="#000593"/>
</g>
<g opacity="0.3" clip-path="url(#clip2_158_1179)">
<circle cx="2027" cy="609.112" r="251.036" transform="rotate(-101.607 2027 609.112)" stroke="#000593"/>
<path opacity="0.3" d="M1980.92 384.138C2113.36 356.936 2240.72 436.08 2266.13 559.809C2291.54 683.539 2205.69 806.475 2073.25 833.677C1940.81 860.88 1813.45 781.736 1788.04 658.006C1762.62 534.277 1848.48 411.341 1980.92 384.138Z" stroke="white" stroke-width="15"/>
<path d="M1983.12 396.736C2107.68 371.154 2228.14 445.559 2252.23 562.852C2276.32 680.145 2194.94 796.007 2070.38 821.59C1945.83 847.172 1825.37 772.767 1801.28 655.473C1777.19 538.18 1858.57 422.318 1983.12 396.736Z" stroke="#6AB6E8"/>
<path d="M1989.06 425.633C2099.29 402.991 2202.84 469.049 2223.33 568.787C2243.82 668.526 2174.69 770.051 2064.45 792.693C1954.21 815.335 1850.66 749.277 1830.18 649.538C1809.69 549.799 1878.82 448.275 1989.06 425.633Z" stroke="url(#paint3_linear_158_1179)" stroke-opacity="0.5" stroke-width="60"/>
<path d="M1983.12 396.736C2107.68 371.154 2228.14 445.559 2252.23 562.852C2276.32 680.145 2194.94 796.007 2070.38 821.59C1945.83 847.172 1825.37 772.767 1801.28 655.473C1777.19 538.18 1858.57 422.318 1983.12 396.736Z" stroke="#000593"/>
<path d="M1992.15 440.709C2092.79 420.04 2189.95 479.444 2209.22 573.307C2228.5 667.169 2162.62 760.06 2061.99 780.729C1961.36 801.398 1864.2 741.995 1844.92 648.132C1825.64 554.269 1891.52 461.378 1992.15 440.709Z" stroke="#000593"/>
</g>
<g opacity="0.78">
<g opacity="0.6">
<mask id="path-20-inside-1_158_1179" fill="white">
<path fill-rule="evenodd" clip-rule="evenodd" d="M1040.87 524.461L1064.16 493.727L1026.84 465.455L1054.28 429.233L1023.54 405.95L996.104 442.172L959.882 414.732L936.599 445.466L972.821 472.906L950.974 501.744L981.708 525.027L1003.55 496.189L1040.87 524.461Z"/>
</mask>
<path fill-rule="evenodd" clip-rule="evenodd" d="M1040.87 524.461L1064.16 493.727L1026.84 465.455L1054.28 429.233L1023.54 405.95L996.104 442.172L959.882 414.732L936.599 445.466L972.821 472.906L950.974 501.744L981.708 525.027L1003.55 496.189L1040.87 524.461Z" fill="url(#paint4_linear_158_1179)" fill-opacity="0.5"/>
<path d="M1064.16 493.727L1064.95 494.331L1065.56 493.534L1064.76 492.93L1064.16 493.727ZM1040.87 524.461L1040.27 525.258L1041.07 525.862L1041.67 525.065L1040.87 524.461ZM1026.84 465.455L1026.04 464.851L1025.44 465.648L1026.23 466.252L1026.84 465.455ZM1054.28 429.233L1055.08 429.837L1055.68 429.04L1054.88 428.436L1054.28 429.233ZM1023.54 405.95L1024.15 405.153L1023.35 404.549L1022.75 405.346L1023.54 405.95ZM996.104 442.172L995.5 442.97L996.297 443.573L996.901 442.776L996.104 442.172ZM959.882 414.732L960.485 413.935L959.688 413.331L959.084 414.128L959.882 414.732ZM936.599 445.466L935.802 444.862L935.198 445.659L935.995 446.263L936.599 445.466ZM972.821 472.906L973.618 473.51L974.222 472.713L973.425 472.109L972.821 472.906ZM950.974 501.744L950.177 501.141L949.573 501.938L950.37 502.541L950.974 501.744ZM981.708 525.027L981.104 525.824L981.901 526.428L982.505 525.631L981.708 525.027ZM1003.55 496.189L1004.16 495.392L1003.36 494.788L1002.76 495.585L1003.55 496.189ZM1063.36 493.123L1040.08 523.857L1041.67 525.065L1064.95 494.331L1063.36 493.123ZM1026.23 466.252L1063.55 494.524L1064.76 492.93L1027.44 464.658L1026.23 466.252ZM1053.48 428.629L1026.04 464.851L1027.63 466.059L1055.08 429.837L1053.48 428.629ZM1022.94 406.747L1053.67 430.03L1054.88 428.436L1024.15 405.153L1022.94 406.747ZM996.901 442.776L1024.34 406.554L1022.75 405.346L995.307 441.569L996.901 442.776ZM959.278 415.529L995.5 442.97L996.708 441.375L960.485 413.935L959.278 415.529ZM937.396 446.069L960.679 415.336L959.084 414.128L935.802 444.862L937.396 446.069ZM973.425 472.109L937.203 444.669L935.995 446.263L972.217 473.703L973.425 472.109ZM951.771 502.348L973.618 473.51L972.024 472.302L950.177 501.141L951.771 502.348ZM982.312 524.23L951.578 500.947L950.37 502.541L981.104 525.824L982.312 524.23ZM1002.76 495.585L980.911 524.423L982.505 525.631L1004.35 496.793L1002.76 495.585ZM1041.48 523.664L1004.16 495.392L1002.95 496.986L1040.27 525.258L1041.48 523.664Z" fill="#000593" mask="url(#path-20-inside-1_158_1179)"/>
</g>
<g opacity="0.6">
<mask id="path-22-inside-2_158_1179" fill="white">
<path fill-rule="evenodd" clip-rule="evenodd" d="M1050.02 512.387L1073.3 481.653L1035.98 453.381L1055.11 428.136L1055.11 428.136L1064.26 416.061L1033.52 392.779L1005.25 430.098L969.028 402.658L959.882 414.732L959.881 414.732L936.599 445.466L972.821 472.906L955.359 495.957L951.286 501.333L982.02 524.615L1003.55 496.189L1040.87 524.461L1050.02 512.387L1050.02 512.387Z"/>
</mask>
<path d="M1073.3 481.653L1074.1 482.257L1074.7 481.46L1073.91 480.856L1073.3 481.653ZM1050.02 512.387L1049.42 513.184L1050.21 513.788L1050.82 512.991L1050.02 512.387ZM1035.98 453.381L1035.19 452.777L1034.58 453.575L1035.38 454.178L1035.98 453.381ZM1055.11 428.136L1055.91 428.739L1056.51 427.942L1055.71 427.339L1055.11 428.136ZM1055.11 428.136L1054.31 427.532L1053.71 428.329L1054.51 428.933L1055.11 428.136ZM1064.26 416.061L1065.05 416.665L1065.66 415.868L1064.86 415.264L1064.26 416.061ZM1033.52 392.779L1034.13 391.981L1033.33 391.378L1032.73 392.175L1033.52 392.779ZM1005.25 430.098L1004.65 430.896L1005.44 431.499L1006.05 430.702L1005.25 430.098ZM969.028 402.658L969.632 401.861L968.835 401.257L968.231 402.054L969.028 402.658ZM959.882 414.732L959.278 415.529L960.075 416.133L960.679 415.336L959.882 414.732ZM959.881 414.732L960.485 413.935L959.688 413.331L959.084 414.128L959.881 414.732ZM936.599 445.466L935.801 444.862L935.198 445.659L935.995 446.263L936.599 445.466ZM972.821 472.906L973.618 473.51L974.222 472.713L973.425 472.109L972.821 472.906ZM955.359 495.957L954.562 495.353L955.359 495.957ZM951.286 501.333L950.489 500.729L949.885 501.526L950.682 502.13L951.286 501.333ZM982.02 524.615L981.416 525.412L982.213 526.016L982.817 525.219L982.02 524.615ZM1003.55 496.189L1004.16 495.392L1003.36 494.788L1002.76 495.585L1003.55 496.189ZM1040.87 524.461L1040.27 525.258L1041.07 525.862L1041.67 525.065L1040.87 524.461ZM1050.02 512.387L1050.62 511.59L1049.83 510.986L1049.22 511.783L1050.02 512.387ZM1072.51 481.049L1049.22 511.783L1050.82 512.991L1074.1 482.257L1072.51 481.049ZM1035.38 454.178L1072.7 482.45L1073.91 480.856L1036.59 452.584L1035.38 454.178ZM1054.31 427.532L1035.19 452.777L1036.78 453.985L1055.91 428.739L1054.31 427.532ZM1054.51 428.933L1054.51 428.933L1055.71 427.339L1055.71 427.339L1054.51 428.933ZM1063.46 415.458L1054.31 427.532L1055.91 428.739L1065.05 416.665L1063.46 415.458ZM1032.92 393.576L1063.65 416.858L1064.86 415.264L1034.13 391.981L1032.92 393.576ZM1006.05 430.702L1034.32 393.382L1032.73 392.175L1004.45 429.495L1006.05 430.702ZM968.425 403.455L1004.65 430.896L1005.85 429.301L969.632 401.861L968.425 403.455ZM960.679 415.336L969.826 403.262L968.231 402.054L959.084 414.128L960.679 415.336ZM959.278 415.529L959.278 415.529L960.485 413.935L960.485 413.935L959.278 415.529ZM937.396 446.07L960.678 415.336L959.084 414.128L935.801 444.862L937.396 446.07ZM973.425 472.109L937.202 444.669L935.995 446.263L972.217 473.703L973.425 472.109ZM956.156 496.56L973.618 473.51L972.024 472.303L954.562 495.353L956.156 496.56ZM952.083 501.936L956.156 496.56L954.562 495.353L950.489 500.729L952.083 501.936ZM982.624 523.818L951.89 500.535L950.682 502.13L981.416 525.412L982.624 523.818ZM1002.76 495.585L981.223 524.012L982.817 525.219L1004.35 496.793L1002.76 495.585ZM1041.48 523.664L1004.16 495.392L1002.95 496.986L1040.27 525.258L1041.48 523.664ZM1049.22 511.783L1040.08 523.857L1041.67 525.065L1050.82 512.991L1049.22 511.783ZM1050.63 511.59L1050.62 511.59L1049.42 513.184L1049.42 513.184L1050.63 511.59Z" fill="#000593" mask="url(#path-22-inside-2_158_1179)"/>
</g>
</g>
<g opacity="0.7">
<g opacity="0.6">
<mask id="path-24-inside-3_158_1179" fill="white">
<path fill-rule="evenodd" clip-rule="evenodd" d="M1533.17 71.5558L1517.2 67.2753L1512 86.6734L1493.17 81.6285L1488.89 97.6036L1507.72 102.648L1502.67 121.476L1518.65 125.757L1523.69 106.929L1538.68 110.945L1542.96 94.9704L1527.97 90.9539L1533.17 71.5558Z"/>
</mask>
<path fill-rule="evenodd" clip-rule="evenodd" d="M1533.17 71.5558L1517.2 67.2753L1512 86.6734L1493.17 81.6285L1488.89 97.6036L1507.72 102.648L1502.67 121.476L1518.65 125.757L1523.69 106.929L1538.68 110.945L1542.96 94.9704L1527.97 90.9539L1533.17 71.5558Z" fill="url(#paint5_linear_158_1179)" fill-opacity="0.5"/>
<path d="M1517.2 67.2753L1517.46 66.3094L1516.49 66.0506L1516.23 67.0165L1517.2 67.2753ZM1533.17 71.5558L1534.14 71.8146L1534.4 70.8487L1533.43 70.5899L1533.17 71.5558ZM1512 86.6734L1511.74 87.6393L1512.71 87.8982L1512.97 86.9322L1512 86.6734ZM1493.17 81.6285L1493.43 80.6626L1492.46 80.4038L1492.21 81.3697L1493.17 81.6285ZM1488.89 97.6036L1487.93 97.3448L1487.67 98.3107L1488.63 98.5695L1488.89 97.6036ZM1507.72 102.648L1508.69 102.907L1508.94 101.941L1507.98 101.683L1507.72 102.648ZM1502.67 121.476L1501.71 121.217L1501.45 122.183L1502.42 122.442L1502.67 121.476ZM1518.65 125.757L1518.39 126.723L1519.36 126.982L1519.62 126.016L1518.65 125.757ZM1523.69 106.929L1523.95 105.963L1522.99 105.704L1522.73 106.67L1523.69 106.929ZM1538.68 110.945L1538.43 111.911L1539.39 112.17L1539.65 111.204L1538.68 110.945ZM1542.96 94.9704L1543.93 95.2292L1544.19 94.2633L1543.22 94.0045L1542.96 94.9704ZM1527.97 90.9539L1527.01 90.6951L1526.75 91.661L1527.72 91.9198L1527.97 90.9539ZM1516.94 68.2412L1532.91 72.5217L1533.43 70.5899L1517.46 66.3094L1516.94 68.2412ZM1512.97 86.9322L1518.16 67.5341L1516.23 67.0165L1511.03 86.4146L1512.97 86.9322ZM1492.91 82.5945L1511.74 87.6393L1512.26 85.7075L1493.43 80.6626L1492.91 82.5945ZM1489.86 97.8624L1494.14 81.8874L1492.21 81.3697L1487.93 97.3448L1489.86 97.8624ZM1507.98 101.683L1489.15 96.6376L1488.63 98.5695L1507.46 103.614L1507.98 101.683ZM1503.64 121.735L1508.69 102.907L1506.75 102.39L1501.71 121.217L1503.64 121.735ZM1518.91 124.791L1502.93 120.51L1502.42 122.442L1518.39 126.723L1518.91 124.791ZM1522.73 106.67L1517.68 125.498L1519.62 126.016L1524.66 107.188L1522.73 106.67ZM1538.94 109.98L1523.95 105.963L1523.44 107.895L1538.43 111.911L1538.94 109.98ZM1542 94.7116L1537.72 110.687L1539.65 111.204L1543.93 95.2292L1542 94.7116ZM1527.72 91.9198L1542.71 95.9363L1543.22 94.0045L1528.23 89.988L1527.72 91.9198ZM1532.21 71.297L1527.01 90.6951L1528.94 91.2127L1534.14 71.8146L1532.21 71.297Z" fill="#000593" mask="url(#path-24-inside-3_158_1179)"/>
</g>
<g opacity="0.6">
<mask id="path-26-inside-4_158_1179" fill="white">
<path fill-rule="evenodd" clip-rule="evenodd" d="M1526.9 69.8742L1510.92 65.5937L1505.72 84.992L1486.33 79.7942L1482.04 95.7693L1488.32 97.4509L1488.32 97.4509L1501.44 100.967L1496.4 119.795L1502.67 121.476L1502.67 121.476L1518.65 125.757L1523.69 106.929L1538.47 110.888L1542.75 94.9132L1539.96 94.1645L1539.96 94.1645L1527.97 90.9541L1533.17 71.5559L1526.9 69.8743L1526.9 69.8742Z"/>
</mask>
<path d="M1510.92 65.5937L1511.18 64.6278L1510.21 64.369L1509.96 65.3349L1510.92 65.5937ZM1526.9 69.8742L1527.86 70.133L1528.12 69.1671L1527.16 68.9083L1526.9 69.8742ZM1505.72 84.992L1505.46 85.9579L1506.43 86.2167L1506.69 85.2508L1505.72 84.992ZM1486.33 79.7942L1486.58 78.8283L1485.62 78.5695L1485.36 79.5354L1486.33 79.7942ZM1482.04 95.7693L1481.08 95.5104L1480.82 96.4764L1481.79 96.7352L1482.04 95.7693ZM1488.32 97.4509L1489.29 97.7097L1489.55 96.7438L1488.58 96.485L1488.32 97.4509ZM1488.32 97.4509L1487.35 97.1921L1487.1 98.158L1488.06 98.4169L1488.32 97.4509ZM1501.44 100.967L1502.41 101.226L1502.67 100.26L1501.7 100.001L1501.44 100.967ZM1496.4 119.795L1495.43 119.536L1495.17 120.502L1496.14 120.761L1496.4 119.795ZM1502.67 121.476L1503.64 121.735L1503.9 120.769L1502.93 120.51L1502.67 121.476ZM1502.67 121.476L1501.71 121.218L1501.45 122.184L1502.42 122.442L1502.67 121.476ZM1518.65 125.757L1518.39 126.723L1519.36 126.982L1519.61 126.016L1518.65 125.757ZM1523.69 106.929L1523.95 105.963L1522.99 105.704L1522.73 106.67L1523.69 106.929ZM1538.47 110.888L1538.21 111.854L1539.18 112.113L1539.44 111.147L1538.47 110.888ZM1542.75 94.9132L1543.72 95.1721L1543.97 94.2061L1543.01 93.9473L1542.75 94.9132ZM1539.96 94.1645L1538.99 93.9057L1538.73 94.8716L1539.7 95.1305L1539.96 94.1645ZM1539.96 94.1645L1540.92 94.4233L1541.18 93.4574L1540.21 93.1985L1539.96 94.1645ZM1527.97 90.9541L1527.01 90.6953L1526.75 91.6612L1527.72 91.92L1527.97 90.9541ZM1533.17 71.5559L1534.14 71.8148L1534.4 70.8488L1533.43 70.59L1533.17 71.5559ZM1526.9 69.8743L1525.93 69.6155L1525.67 70.5814L1526.64 70.8402L1526.9 69.8743ZM1510.66 66.5596L1526.64 70.8401L1527.16 68.9083L1511.18 64.6278L1510.66 66.5596ZM1506.69 85.2508L1511.89 65.8525L1509.96 65.3349L1504.76 84.7332L1506.69 85.2508ZM1486.07 80.7602L1505.46 85.9579L1505.98 84.026L1486.58 78.8283L1486.07 80.7602ZM1483.01 96.0281L1487.29 80.053L1485.36 79.5354L1481.08 95.5104L1483.01 96.0281ZM1488.58 96.485L1482.3 94.8033L1481.79 96.7352L1488.06 98.4168L1488.58 96.485ZM1489.29 97.7098L1489.29 97.7097L1487.35 97.1921L1487.35 97.1921L1489.29 97.7098ZM1501.7 100.001L1488.58 96.485L1488.06 98.4169L1501.18 101.933L1501.7 100.001ZM1497.36 120.054L1502.41 101.226L1500.48 100.708L1495.43 119.536L1497.36 120.054ZM1502.93 120.51L1496.66 118.829L1496.14 120.761L1502.42 122.442L1502.93 120.51ZM1503.64 121.735L1503.64 121.735L1501.71 121.218L1501.71 121.218L1503.64 121.735ZM1518.91 124.791L1502.93 120.511L1502.42 122.442L1518.39 126.723L1518.91 124.791ZM1522.73 106.67L1517.68 125.498L1519.61 126.016L1524.66 107.188L1522.73 106.67ZM1538.73 109.922L1523.95 105.963L1523.44 107.895L1538.21 111.854L1538.73 109.922ZM1541.78 94.6544L1537.5 110.629L1539.44 111.147L1543.72 95.1721L1541.78 94.6544ZM1539.7 95.1305L1542.49 95.8792L1543.01 93.9473L1540.21 93.1986L1539.7 95.1305ZM1538.99 93.9057L1538.99 93.9057L1540.92 94.4233L1540.92 94.4233L1538.99 93.9057ZM1527.72 91.92L1539.7 95.1304L1540.21 93.1985L1528.23 89.9882L1527.72 91.92ZM1532.21 71.2971L1527.01 90.6953L1528.94 91.2129L1534.14 71.8148L1532.21 71.2971ZM1526.64 70.8402L1532.91 72.5219L1533.43 70.59L1527.16 68.9084L1526.64 70.8402ZM1525.93 69.6154L1525.93 69.6155L1527.86 70.1331L1527.86 70.133L1525.93 69.6154Z" fill="#000593" mask="url(#path-26-inside-4_158_1179)"/>
</g>
</g>
<defs>
<radialGradient id="paint0_radial_158_1179" cx="0" cy="0" r="1" gradientUnits="userSpaceOnUse" gradientTransform="translate(410.2 265.352) rotate(11.4926) scale(1065.45 2776.15)">
<stop stop-color="#6AB6E8" stop-opacity="0"/>
<stop offset="0.0001" stop-color="#6AB6E8" stop-opacity="0.71"/>
<stop offset="1" stop-color="#6AB6E8"/>
</radialGradient>
<linearGradient id="paint1_linear_158_1179" x1="16368.9" y1="3563.64" x2="16536.6" y2="2660.16" gradientUnits="userSpaceOnUse">
<stop stop-color="#6AB6E8"/>
<stop offset="1" stop-color="#000593"/>
</linearGradient>
<linearGradient id="paint2_linear_158_1179" x1="12980" y1="-1445.97" x2="12842" y2="-2117.39" gradientUnits="userSpaceOnUse">
<stop stop-color="#6AB6E8"/>
<stop offset="1" stop-color="#000593"/>
</linearGradient>
<linearGradient id="paint3_linear_158_1179" x1="8844.41" y1="-567.527" x2="8759.31" y2="-981.673" gradientUnits="userSpaceOnUse">
<stop stop-color="#6AB6E8"/>
<stop offset="1" stop-color="#000593"/>
</linearGradient>
<linearGradient id="paint4_linear_158_1179" x1="-523.174" y1="-766.368" x2="-593.746" y2="-673.195" gradientUnits="userSpaceOnUse">
<stop stop-color="#6AB6E8"/>
<stop offset="1" stop-color="#000593"/>
</linearGradient>
<linearGradient id="paint5_linear_158_1179" x1="1273.24" y1="901.661" x2="1321.67" y2="914.633" gradientUnits="userSpaceOnUse">
<stop stop-color="#6AB6E8"/>
<stop offset="1" stop-color="#000593"/>
</linearGradient>
<clipPath id="clip0_158_1179">
<rect width="501.997" height="677.112" fill="white" transform="translate(1089)"/>
</clipPath>
<clipPath id="clip1_158_1179">
<rect width="595" height="660" fill="white" transform="translate(1456 17.1123)"/>
</clipPath>
<clipPath id="clip2_158_1179">
<rect width="456.467" height="487.988" fill="white" transform="translate(1595 189.112)"/>
</clipPath>
</defs>
</svg>
