<svg width="594" height="608" viewBox="0 0 594 608" fill="none" xmlns="http://www.w3.org/2000/svg">
<rect x="24" y="98" width="570" height="510" rx="4" fill="#DAEDF9"/>
<g opacity="0.5" clip-path="url(#clip0_303_612)">
<circle cx="471.5" cy="444.5" r="407.293" transform="rotate(-101.607 471.5 444.5)" stroke="#000593"/>
<path opacity="0.3" d="M395.852 75.206C612.827 30.6408 821.973 160.267 863.743 363.632C905.513 566.998 764.392 768.566 547.417 813.131C330.443 857.697 121.297 728.071 79.5268 524.705C37.7569 321.34 178.878 119.771 395.852 75.206Z" stroke="white" stroke-width="15"/>
<path d="M400.303 99.8886C602.381 58.3833 797.849 179.098 836.944 369.44C876.039 559.782 743.976 747.77 541.899 789.275C339.821 830.781 144.353 710.065 105.258 519.724C66.1627 329.382 198.226 141.394 400.303 99.8886Z" stroke="#6AB6E8"/>
<path d="M408.25 138.581C591.159 101.013 763.985 210.55 798.252 377.387C832.519 544.224 716.86 713.015 533.951 750.583C351.043 788.151 178.217 678.614 143.95 511.777C109.683 344.939 225.342 176.149 408.25 138.581Z" stroke="url(#paint0_linear_303_612)" stroke-opacity="0.5" stroke-width="80"/>
<path d="M400.303 99.8886C602.381 58.3833 797.849 179.098 836.944 369.44C876.039 559.782 743.976 747.77 541.899 789.275C339.821 830.781 144.353 710.065 105.258 519.724C66.1627 329.382 198.226 141.394 400.303 99.8886Z" stroke="#000593"/>
<path d="M405.945 160.178C569.238 126.639 726.935 223.03 758.228 375.389C789.522 527.748 682.585 678.493 519.293 712.032C356 745.572 198.303 649.181 167.01 496.822C135.716 344.463 242.653 193.718 405.945 160.178Z" stroke="#000593"/>
<circle cx="542" cy="555" r="260.352" transform="rotate(-101.607 542 555)" stroke="#000593"/>
<path opacity="0.3" d="M494.154 321.422C631.635 293.184 763.869 375.338 790.258 503.815C816.646 632.293 727.499 759.917 590.018 788.155C452.537 816.392 320.303 734.239 293.915 605.761C267.526 477.283 356.674 349.659 494.154 321.422Z" stroke="white" stroke-width="15"/>
<path d="M496.494 334.74C625.669 308.208 750.6 385.374 775.586 507.023C800.572 628.671 716.17 748.833 586.995 775.365C457.82 801.897 332.889 724.73 307.903 603.082C282.917 481.434 367.319 361.271 496.494 334.74Z" stroke="#6AB6E8"/>
<path d="M504.441 373.432C614.447 350.837 716.736 416.826 736.894 514.97C757.052 613.113 689.054 714.078 579.048 736.673C469.042 759.267 366.753 693.278 346.595 595.135C326.437 496.991 394.435 396.026 504.441 373.432Z" stroke="url(#paint1_linear_303_612)" stroke-opacity="0.5" stroke-width="80"/>
<path d="M496.494 334.74C625.669 308.208 750.6 385.374 775.586 507.023C800.572 628.671 716.17 748.833 586.995 775.365C457.82 801.897 332.889 724.73 307.903 603.082C282.917 481.434 367.319 361.271 496.494 334.74Z" stroke="#000593"/>
<path d="M500.103 373.305C604.47 351.869 705.239 413.478 725.234 510.828C745.229 608.179 676.902 704.519 572.535 725.955C468.168 747.392 367.399 685.783 347.404 588.432C327.408 491.082 395.736 394.742 500.103 373.305Z" stroke="#000593"/>
</g>
<defs>
<linearGradient id="paint0_linear_303_612" x1="11524" y1="-1463.08" x2="11386" y2="-2134.5" gradientUnits="userSpaceOnUse">
<stop stop-color="#6AB6E8"/>
<stop offset="1" stop-color="#000593"/>
</linearGradient>
<linearGradient id="paint1_linear_303_612" x1="7611.91" y1="-665.219" x2="7523.65" y2="-1094.7" gradientUnits="userSpaceOnUse">
<stop stop-color="#6AB6E8"/>
<stop offset="1" stop-color="#000593"/>
</linearGradient>
<clipPath id="clip0_303_612">
<rect width="594" height="608" fill="white"/>
</clipPath>
</defs>
</svg>
