<svg width="1920" height="477" viewBox="0 0 1920 477" fill="none" xmlns="http://www.w3.org/2000/svg">
<rect opacity="0.3" width="1920" height="477" fill="url(#paint0_radial_303_614)"/>
<g clip-path="url(#clip0_303_614)">
<g opacity="0.7" clip-path="url(#clip1_303_614)">
<circle cx="305.242" cy="600.241" r="403.687" transform="rotate(-11.6068 305.242 600.241)" stroke="#000593"/>
<path opacity="0.3" d="M671.205 525.276C715.369 740.3 586.908 947.558 385.381 988.951C183.853 1030.34 -15.9002 890.498 -60.0646 675.474C-104.229 460.451 24.2318 253.193 225.759 211.8C427.287 170.408 627.04 310.253 671.205 525.276Z" stroke="url(#paint1_linear_303_614)" stroke-width="15"/>
<path d="M646.801 529.675C687.939 729.963 568.292 923.7 379.637 962.449C190.981 1001.2 4.6577 870.305 -36.4802 670.016C-77.618 469.728 42.0282 275.991 230.684 237.242C419.34 198.494 605.663 329.387 646.801 529.675Z" stroke="#6AB6E8"/>
<path d="M593.415 540.64C629.121 714.48 524.897 876.976 368.672 909.063C212.446 941.151 52.6109 832.891 16.9054 659.051C-18.8001 485.212 85.4237 322.716 241.649 290.628C397.874 258.54 557.71 366.801 593.415 540.64Z" stroke="url(#paint2_linear_303_614)" stroke-opacity="0.5" stroke-width="110"/>
<path d="M646.801 529.675C687.939 729.963 568.292 923.7 379.637 962.449C190.981 1001.2 4.6577 870.305 -36.4802 670.016C-77.618 469.728 42.0282 275.991 230.684 237.242C419.34 198.494 605.663 329.387 646.801 529.675Z" stroke="#000593"/>
<path d="M576.142 544.188C609.384 706.034 513.847 862.334 362.838 893.35C211.829 924.366 62.4197 818.377 29.1774 656.531C-4.0648 494.684 91.4724 338.385 242.481 307.369C393.49 276.352 542.9 382.341 576.142 544.188Z" stroke="#000593"/>
</g>
<g opacity="0.8" clip-path="url(#clip2_303_614)">
<g opacity="0.7">
<circle cx="1727.24" cy="570.242" r="475.675" transform="rotate(138.475 1727.24 570.242)" stroke="#000593"/>
<path opacity="0.3" d="M1396.6 862.716C1224.72 668.61 1234.05 380.641 1416.12 219.419C1598.18 58.1965 1885.17 83.7747 2057.05 277.881C2228.93 471.986 2219.6 759.955 2037.54 921.178C1855.47 1082.4 1568.49 1056.82 1396.6 862.716Z" stroke="url(#paint3_linear_303_614)" stroke-width="15"/>
<path d="M1419.87 843.058C1260.15 662.682 1268.47 394.494 1438.38 244.037C1608.29 93.58 1875.52 117.762 2035.24 298.138C2194.97 478.513 2186.64 746.701 2016.73 897.158C1846.82 1047.62 1579.6 1023.43 1419.87 843.058Z" stroke="#6AB6E8"/>
<path d="M1460.67 806.927C1318.85 646.766 1329.39 413.348 1474.51 284.839C1619.64 156.331 1852.62 174.107 1994.44 334.269C2136.27 494.43 2125.72 727.848 1980.6 856.356C1835.48 984.865 1602.5 967.088 1460.67 806.927Z" stroke="url(#paint4_linear_303_614)" stroke-opacity="0.5" stroke-width="110"/>
<path d="M1419.87 843.058C1260.15 662.682 1268.47 394.494 1438.38 244.037C1608.29 93.58 1875.52 117.762 2035.24 298.138C2194.97 478.513 2186.64 746.701 2016.73 897.158C1846.82 1047.62 1579.6 1023.43 1419.87 843.058Z" stroke="#000593"/>
<path d="M1483.49 786.719C1354.42 640.958 1360.13 425.165 1496.14 304.724C1632.15 184.283 1847.05 204.727 1976.12 350.489C2105.2 496.251 2099.49 712.044 1963.48 832.484C1827.47 952.925 1612.57 932.481 1483.49 786.719Z" stroke="#000593"/>
</g>
<g opacity="0.8">
<circle cx="1799.74" cy="601.741" r="245.736" transform="rotate(-162.09 1799.74 601.741)" stroke="#000593"/>
<path opacity="0.3" d="M1586.02 532.541C1626.7 406.673 1755.46 336.409 1873.03 374.406C1990.59 412.403 2053.88 544.735 2013.2 670.603C1972.52 796.47 1843.76 866.735 1726.19 828.738C1608.62 790.741 1545.34 658.409 1586.02 532.541Z" stroke="url(#paint5_linear_303_614)" stroke-width="15"/>
<path d="M1597.67 536.693C1635.95 418.256 1757.43 351.53 1868.96 387.576C1980.49 423.623 2039.94 548.822 2001.66 667.258C1963.38 785.695 1841.91 852.421 1730.37 816.375C1618.84 780.328 1559.39 655.129 1597.67 536.693Z" stroke="#6AB6E8"/>
<path d="M1649.53 553.453C1679.51 460.709 1772.17 413.57 1852.2 439.435C1932.23 465.3 1979.78 557.754 1949.8 650.498C1919.83 743.242 1827.16 790.381 1747.13 764.516C1667.11 738.651 1619.56 646.197 1649.53 553.453Z" stroke="url(#paint6_linear_303_614)" stroke-opacity="0.5" stroke-width="110"/>
<path d="M1597.67 536.693C1635.95 418.256 1757.43 351.53 1868.96 387.576C1980.49 423.623 2039.94 548.822 2001.66 667.258C1963.38 785.695 1841.91 852.421 1730.37 816.375C1618.84 780.328 1559.39 655.129 1597.67 536.693Z" stroke="#000593"/>
<path d="M1639.49 550.207C1670.41 454.518 1767.87 400.405 1857.12 429.251C1946.37 458.096 1993.73 559.012 1962.8 654.701C1931.88 750.389 1834.42 804.502 1745.17 775.657C1655.92 746.812 1608.56 645.896 1639.49 550.207Z" stroke="#000593"/>
</g>
</g>
</g>
<g opacity="0.78">
<g opacity="0.6">
<mask id="path-20-inside-1_303_614" fill="white">
<path fill-rule="evenodd" clip-rule="evenodd" d="M712.63 96.6422L715.777 72.4884L686.448 68.6665L690.157 40.1995L666.004 37.052L662.294 65.5189L633.827 61.8094L630.679 85.9631L659.146 89.6727L656.193 112.337L680.347 115.484L683.3 92.8202L712.63 96.6422Z"/>
</mask>
<path fill-rule="evenodd" clip-rule="evenodd" d="M712.63 96.6422L715.777 72.4884L686.448 68.6665L690.157 40.1995L666.004 37.052L662.294 65.5189L633.827 61.8094L630.679 85.9631L659.146 89.6727L656.193 112.337L680.347 115.484L683.3 92.8202L712.63 96.6422Z" fill="url(#paint7_linear_303_614)" fill-opacity="0.5"/>
<path d="M715.777 72.4884L716.769 72.6177L716.898 71.626L715.906 71.4968L715.777 72.4884ZM712.63 96.6422L712.5 97.6338L713.492 97.763L713.621 96.7714L712.63 96.6422ZM686.448 68.6665L685.456 68.5372L685.327 69.5288L686.318 69.6581L686.448 68.6665ZM690.157 40.1995L691.149 40.3287L691.278 39.3371L690.286 39.2079L690.157 40.1995ZM666.004 37.052L666.133 36.0604L665.141 35.9311L665.012 36.9228L666.004 37.052ZM662.294 65.5189L662.165 66.5105L663.156 66.6398L663.286 65.6482L662.294 65.5189ZM633.827 61.8094L633.956 60.8177L632.965 60.6885L632.835 61.6801L633.827 61.8094ZM630.679 85.9631L629.688 85.8339L629.559 86.8255L630.55 86.9547L630.679 85.9631ZM659.146 89.6727L660.138 89.8019L660.267 88.8103L659.276 88.6811L659.146 89.6727ZM656.193 112.337L655.201 112.207L655.072 113.199L656.064 113.328L656.193 112.337ZM680.347 115.484L680.218 116.476L681.209 116.605L681.338 115.613L680.347 115.484ZM683.3 92.8202L683.429 91.8286L682.438 91.6994L682.309 92.691L683.3 92.8202ZM714.786 72.3592L711.638 96.513L713.621 96.7714L716.769 72.6177L714.786 72.3592ZM686.318 69.6581L715.648 73.4801L715.906 71.4968L686.577 67.6748L686.318 69.6581ZM689.166 40.0703L685.456 68.5372L687.439 68.7957L691.149 40.3287L689.166 40.0703ZM665.874 38.0436L690.028 41.1911L690.286 39.2079L666.133 36.0604L665.874 38.0436ZM663.286 65.6482L666.995 37.1812L665.012 36.9228L661.302 65.3897L663.286 65.6482ZM633.698 62.801L662.165 66.5105L662.423 64.5273L633.956 60.8177L633.698 62.801ZM631.671 86.0923L634.819 61.9386L632.835 61.6801L629.688 85.8339L631.671 86.0923ZM659.276 88.6811L630.809 84.9715L630.55 86.9547L659.017 90.6643L659.276 88.6811ZM657.185 112.466L660.138 89.8019L658.155 89.5435L655.201 112.207L657.185 112.466ZM680.476 114.493L656.322 111.345L656.064 113.328L680.218 116.476L680.476 114.493ZM682.309 92.691L679.355 115.355L681.338 115.613L684.292 92.9494L682.309 92.691ZM712.759 95.6506L683.429 91.8286L683.171 93.8118L712.5 97.6338L712.759 95.6506Z" fill="#000593" mask="url(#path-20-inside-1_303_614)"/>
</g>
<g opacity="0.6">
<mask id="path-22-inside-2_303_614" fill="white">
<path fill-rule="evenodd" clip-rule="evenodd" d="M713.866 87.1535L717.014 62.9997L687.685 59.1777L691.507 29.848L667.353 26.7004L666.116 36.1898L666.116 36.1897L663.531 56.0302L635.064 52.3206L633.827 61.8098L633.827 61.8098L630.679 85.9635L659.146 89.6731L656.235 112.013L680.389 115.161L680.94 110.936L680.94 110.936L683.3 92.8207L712.63 96.6426L713.866 87.1534L713.866 87.1535Z"/>
</mask>
<path d="M717.014 62.9997L718.006 63.1289L718.135 62.1373L717.143 62.0081L717.014 62.9997ZM713.866 87.1535L713.737 88.1451L714.729 88.2743L714.858 87.2827L713.866 87.1535ZM687.685 59.1777L686.693 59.0485L686.564 60.0401L687.555 60.1693L687.685 59.1777ZM691.507 29.848L692.498 29.9772L692.627 28.9856L691.636 28.8563L691.507 29.848ZM667.353 26.7004L667.482 25.7088L666.49 25.5796L666.361 26.5712L667.353 26.7004ZM666.116 36.1898L665.987 37.1814L666.979 37.3106L667.108 36.319L666.116 36.1898ZM666.116 36.1897L666.245 35.1981L665.254 35.0689L665.124 36.0605L666.116 36.1897ZM663.531 56.0302L663.401 57.0218L664.393 57.151L664.522 56.1594L663.531 56.0302ZM635.064 52.3206L635.193 51.329L634.201 51.1998L634.072 52.1914L635.064 52.3206ZM633.827 61.8098L633.698 62.8014L634.69 62.9306L634.819 61.939L633.827 61.8098ZM633.827 61.8098L633.956 60.8181L632.964 60.6889L632.835 61.6805L633.827 61.8098ZM630.679 85.9635L629.688 85.8343L629.558 86.8259L630.55 86.9551L630.679 85.9635ZM659.146 89.6731L660.138 89.8024L660.267 88.8107L659.276 88.6815L659.146 89.6731ZM656.235 112.013L655.244 111.884L655.114 112.876L656.106 113.005L656.235 112.013ZM680.389 115.161L680.26 116.152L681.251 116.282L681.381 115.29L680.389 115.161ZM680.94 110.936L681.069 109.944L680.077 109.815L679.948 110.806L680.94 110.936ZM680.94 110.936L680.811 111.927L681.802 112.056L681.931 111.065L680.94 110.936ZM683.3 92.8207L683.43 91.8291L682.438 91.6998L682.309 92.6915L683.3 92.8207ZM712.63 96.6426L712.5 97.6342L713.492 97.7634L713.621 96.7718L712.63 96.6426ZM713.866 87.1534L713.995 86.1618L713.004 86.0326L712.874 87.0242L713.866 87.1534ZM716.022 62.8705L712.875 87.0242L714.858 87.2827L718.006 63.1289L716.022 62.8705ZM687.555 60.1693L716.885 63.9913L717.143 62.0081L687.814 58.1861L687.555 60.1693ZM690.515 29.7187L686.693 59.0485L688.676 59.3069L692.498 29.9772L690.515 29.7187ZM667.224 27.692L691.377 30.8396L691.636 28.8563L667.482 25.7088L667.224 27.692ZM667.108 36.319L668.344 26.8296L666.361 26.5712L665.125 36.0605L667.108 36.319ZM665.987 37.1813L665.987 37.1814L666.245 35.1981L666.245 35.1981L665.987 37.1813ZM664.522 56.1594L667.108 36.3189L665.124 36.0605L662.539 55.901L664.522 56.1594ZM634.934 53.3122L663.401 57.0218L663.66 55.0386L635.193 51.329L634.934 53.3122ZM634.819 61.939L636.055 52.4498L634.072 52.1914L632.835 61.6806L634.819 61.939ZM633.698 62.8014L633.698 62.8014L633.956 60.8182L633.956 60.8181L633.698 62.8014ZM631.671 86.0927L634.818 61.939L632.835 61.6805L629.688 85.8343L631.671 86.0927ZM659.276 88.6815L630.808 84.9719L630.55 86.9551L659.017 90.6647L659.276 88.6815ZM657.227 112.142L660.138 89.8024L658.155 89.5439L655.244 111.884L657.227 112.142ZM680.518 114.169L656.364 111.022L656.106 113.005L680.26 116.152L680.518 114.169ZM679.948 110.806L679.397 115.032L681.381 115.29L681.931 111.065L679.948 110.806ZM681.069 109.944L681.069 109.944L680.81 111.927L680.811 111.927L681.069 109.944ZM682.309 92.6915L679.948 110.806L681.931 111.065L684.292 92.9499L682.309 92.6915ZM712.759 95.651L683.43 91.8291L683.171 93.8123L712.5 97.6342L712.759 95.651ZM712.874 87.0242L711.638 96.5134L713.621 96.7718L714.858 87.2826L712.874 87.0242ZM713.996 86.1618L713.995 86.1618L713.737 88.145L713.737 88.1451L713.996 86.1618Z" fill="#000593" mask="url(#path-22-inside-2_303_614)"/>
</g>
</g>
<g clip-path="url(#clip3_303_614)">
<g opacity="0.78">
<g opacity="0.6">
<mask id="path-24-inside-3_303_614" fill="white">
<path fill-rule="evenodd" clip-rule="evenodd" d="M1162.14 555.849L1197.55 509.103L1140.79 466.102L1182.53 411.008L1135.78 375.595L1094.04 430.689L1038.95 388.952L1003.54 435.698L1058.63 477.435L1025.4 521.297L1072.15 556.71L1105.38 512.848L1162.14 555.849Z"/>
</mask>
<path fill-rule="evenodd" clip-rule="evenodd" d="M1162.14 555.849L1197.55 509.103L1140.79 466.102L1182.53 411.008L1135.78 375.595L1094.04 430.689L1038.95 388.952L1003.54 435.698L1058.63 477.435L1025.4 521.297L1072.15 556.71L1105.38 512.848L1162.14 555.849Z" fill="url(#paint8_linear_303_614)" fill-opacity="0.5"/>
<path d="M1197.55 509.103L1198.35 509.707L1198.95 508.91L1198.16 508.306L1197.55 509.103ZM1162.14 555.849L1161.53 556.646L1162.33 557.25L1162.94 556.453L1162.14 555.849ZM1140.79 466.102L1139.99 465.498L1139.39 466.295L1140.19 466.899L1140.79 466.102ZM1182.53 411.008L1183.32 411.612L1183.93 410.815L1183.13 410.211L1182.53 411.008ZM1135.78 375.595L1136.38 374.798L1135.59 374.194L1134.98 374.991L1135.78 375.595ZM1094.04 430.689L1093.44 431.486L1094.24 432.09L1094.84 431.293L1094.04 430.689ZM1038.95 388.952L1039.55 388.155L1038.76 387.551L1038.15 388.348L1038.95 388.952ZM1003.54 435.698L1002.74 435.094L1002.14 435.891L1002.93 436.495L1003.54 435.698ZM1058.63 477.435L1059.43 478.038L1060.03 477.241L1059.23 476.638L1058.63 477.435ZM1025.4 521.297L1024.6 520.693L1024 521.49L1024.8 522.094L1025.4 521.297ZM1072.15 556.71L1071.54 557.507L1072.34 558.111L1072.94 557.314L1072.15 556.71ZM1105.38 512.848L1105.98 512.051L1105.18 511.447L1104.58 512.244L1105.38 512.848ZM1196.75 508.499L1161.34 555.245L1162.94 556.453L1198.35 509.707L1196.75 508.499ZM1140.19 466.899L1196.95 509.9L1198.16 508.306L1141.39 465.305L1140.19 466.899ZM1181.73 410.404L1139.99 465.498L1141.59 466.706L1183.32 411.612L1181.73 410.404ZM1135.18 376.392L1181.92 411.805L1183.13 410.211L1136.38 374.798L1135.18 376.392ZM1094.84 431.293L1136.58 376.199L1134.98 374.991L1093.25 430.085L1094.84 431.293ZM1038.35 389.749L1093.44 431.486L1094.65 429.892L1039.55 388.155L1038.35 389.749ZM1004.33 436.301L1039.75 389.555L1038.15 388.348L1002.74 435.094L1004.33 436.301ZM1059.23 476.638L1004.14 434.9L1002.93 436.495L1058.03 478.232L1059.23 476.638ZM1026.2 521.901L1059.43 478.038L1057.83 476.831L1024.6 520.693L1026.2 521.901ZM1072.75 555.913L1026.01 520.5L1024.8 522.094L1071.54 557.507L1072.75 555.913ZM1104.58 512.244L1071.35 556.106L1072.94 557.314L1106.17 513.451L1104.58 512.244ZM1162.74 555.052L1105.98 512.051L1104.77 513.645L1161.53 556.646L1162.74 555.052Z" fill="#000593" mask="url(#path-24-inside-3_303_614)"/>
</g>
<g opacity="0.6">
<mask id="path-26-inside-4_303_614" fill="white">
<path fill-rule="evenodd" clip-rule="evenodd" d="M1176.05 537.484L1211.46 490.738L1154.7 447.737L1197.7 390.973L1150.96 355.56L1137.05 373.926L1137.04 373.925L1107.96 412.324L1052.86 370.587L1038.95 388.952L1038.95 388.951L1003.54 435.697L1058.63 477.435L1025.88 520.67L1072.62 556.083L1078.82 547.906L1078.82 547.906L1105.38 512.848L1162.14 555.848L1176.05 537.484L1176.05 537.484Z"/>
</mask>
<path d="M1211.46 490.738L1212.26 491.342L1212.87 490.545L1212.07 489.941L1211.46 490.738ZM1176.05 537.484L1175.45 538.281L1176.24 538.885L1176.85 538.088L1176.05 537.484ZM1154.7 447.737L1153.91 447.133L1153.3 447.93L1154.1 448.534L1154.7 447.737ZM1197.7 390.973L1198.5 391.577L1199.11 390.78L1198.31 390.176L1197.7 390.973ZM1150.96 355.56L1151.56 354.763L1150.77 354.159L1150.16 354.957L1150.96 355.56ZM1137.05 373.926L1136.44 374.723L1137.24 375.327L1137.84 374.53L1137.05 373.926ZM1137.04 373.925L1137.65 373.128L1136.85 372.524L1136.25 373.321L1137.04 373.925ZM1107.96 412.324L1107.35 413.121L1108.15 413.725L1108.75 412.928L1107.96 412.324ZM1052.86 370.587L1053.47 369.79L1052.67 369.186L1052.07 369.983L1052.86 370.587ZM1038.95 388.952L1038.35 389.749L1039.14 390.353L1039.75 389.556L1038.95 388.952ZM1038.95 388.951L1039.55 388.154L1038.76 387.55L1038.15 388.347L1038.95 388.951ZM1003.54 435.697L1002.74 435.093L1002.14 435.89L1002.93 436.494L1003.54 435.697ZM1058.63 477.435L1059.43 478.038L1060.03 477.241L1059.23 476.637L1058.63 477.435ZM1025.88 520.67L1025.08 520.066L1024.48 520.864L1025.27 521.467L1025.88 520.67ZM1072.62 556.083L1072.02 556.88L1072.82 557.484L1073.42 556.687L1072.62 556.083ZM1078.82 547.906L1079.42 547.109L1078.62 546.505L1078.02 547.302L1078.82 547.906ZM1078.82 547.906L1078.21 548.703L1079.01 549.307L1079.61 548.51L1078.82 547.906ZM1105.38 512.848L1105.98 512.051L1105.18 511.447L1104.58 512.244L1105.38 512.848ZM1162.14 555.848L1161.53 556.645L1162.33 557.249L1162.94 556.452L1162.14 555.848ZM1176.05 537.484L1176.65 536.687L1175.86 536.083L1175.25 536.88L1176.05 537.484ZM1210.67 490.134L1175.25 536.88L1176.85 538.088L1212.26 491.342L1210.67 490.134ZM1154.1 448.534L1210.86 491.535L1212.07 489.941L1155.31 446.94L1154.1 448.534ZM1196.91 390.37L1153.91 447.133L1155.5 448.341L1198.5 391.577L1196.91 390.37ZM1150.35 356.358L1197.1 391.771L1198.31 390.176L1151.56 354.763L1150.35 356.358ZM1137.84 374.53L1151.76 356.164L1150.16 354.957L1136.25 373.322L1137.84 374.53ZM1136.44 374.722L1136.44 374.723L1137.65 373.129L1137.65 373.128L1136.44 374.722ZM1108.75 412.928L1137.84 374.529L1136.25 373.321L1107.16 411.72L1108.75 412.928ZM1052.26 371.384L1107.35 413.121L1108.56 411.527L1053.47 369.79L1052.26 371.384ZM1039.75 389.556L1053.66 371.191L1052.07 369.983L1038.15 388.348L1039.75 389.556ZM1038.35 389.748L1038.35 389.749L1039.55 388.155L1039.55 388.154L1038.35 389.748ZM1004.33 436.301L1039.75 389.555L1038.15 388.347L1002.74 435.093L1004.33 436.301ZM1059.23 476.637L1004.14 434.9L1002.93 436.494L1058.03 478.232L1059.23 476.637ZM1026.67 521.274L1059.43 478.038L1057.83 476.831L1025.08 520.066L1026.67 521.274ZM1073.23 555.286L1026.48 519.873L1025.27 521.467L1072.02 556.88L1073.23 555.286ZM1078.02 547.302L1071.83 555.479L1073.42 556.687L1079.61 548.51L1078.02 547.302ZM1079.42 547.109L1079.42 547.109L1078.21 548.703L1078.21 548.703L1079.42 547.109ZM1104.58 512.244L1078.02 547.302L1079.61 548.51L1106.17 513.452L1104.58 512.244ZM1162.74 555.051L1105.98 512.051L1104.77 513.645L1161.53 556.645L1162.74 555.051ZM1175.25 536.88L1161.34 555.245L1162.94 556.452L1176.85 538.087L1175.25 536.88ZM1176.66 536.687L1176.65 536.687L1175.45 538.281L1175.45 538.281L1176.66 536.687Z" fill="#000593" mask="url(#path-26-inside-4_303_614)"/>
</g>
</g>
</g>
<defs>
<radialGradient id="paint0_radial_303_614" cx="0" cy="0" r="1" gradientUnits="userSpaceOnUse" gradientTransform="translate(384 186.136) rotate(8.66253) scale(988.678 1964.56)">
<stop stop-color="#6AB6E8" stop-opacity="0"/>
<stop offset="0.0001" stop-color="#6AB6E8" stop-opacity="0.71"/>
<stop offset="1" stop-color="#6AB6E8"/>
</radialGradient>
<linearGradient id="paint1_linear_303_614" x1="224.25" y1="204.454" x2="226.802" y2="222.061" gradientUnits="userSpaceOnUse">
<stop stop-color="#6AB6E8"/>
<stop offset="1" stop-color="#6AB6E8" stop-opacity="0"/>
</linearGradient>
<linearGradient id="paint2_linear_303_614" x1="230.583" y1="236.753" x2="379.737" y2="962.939" gradientUnits="userSpaceOnUse">
<stop stop-color="#6AB6E8"/>
<stop offset="1" stop-color="#000593"/>
</linearGradient>
<linearGradient id="paint3_linear_303_614" x1="2042.51" y1="926.793" x2="2029.56" y2="910.314" gradientUnits="userSpaceOnUse">
<stop stop-color="#6AB6E8"/>
<stop offset="1" stop-color="#6AB6E8" stop-opacity="0"/>
</linearGradient>
<linearGradient id="paint4_linear_303_614" x1="2017.06" y1="897.533" x2="1438.05" y2="243.663" gradientUnits="userSpaceOnUse">
<stop stop-color="#6AB6E8"/>
<stop offset="1" stop-color="#000593"/>
</linearGradient>
<linearGradient id="paint5_linear_303_614" x1="1723.88" y1="835.875" x2="1727.81" y2="825.774" gradientUnits="userSpaceOnUse">
<stop stop-color="#6AB6E8"/>
<stop offset="1" stop-color="#6AB6E8" stop-opacity="0"/>
</linearGradient>
<linearGradient id="paint6_linear_303_614" x1="1730.22" y1="816.85" x2="1869.11" y2="387.101" gradientUnits="userSpaceOnUse">
<stop stop-color="#6AB6E8"/>
<stop offset="1" stop-color="#000593"/>
</linearGradient>
<linearGradient id="paint7_linear_303_614" x1="714.203" y1="84.5653" x2="632.253" y2="73.8862" gradientUnits="userSpaceOnUse">
<stop stop-color="#6AB6E8"/>
<stop offset="1" stop-color="#000593"/>
</linearGradient>
<linearGradient id="paint8_linear_303_614" x1="1179.85" y1="532.476" x2="1021.24" y2="412.324" gradientUnits="userSpaceOnUse">
<stop stop-color="#6AB6E8"/>
<stop offset="1" stop-color="#000593"/>
</linearGradient>
<clipPath id="clip0_303_614">
<rect width="1600" height="477" fill="white" transform="translate(160)"/>
</clipPath>
<clipPath id="clip1_303_614">
<rect width="311" height="737" fill="white" transform="translate(702 166) rotate(90)"/>
</clipPath>
<clipPath id="clip2_303_614">
<rect width="441" height="814" fill="white" transform="translate(2013 36) rotate(90)"/>
</clipPath>
<clipPath id="clip3_303_614">
<rect width="243" height="126" fill="white" transform="translate(986 351)"/>
</clipPath>
</defs>
</svg>
