<svg width="1920" height="600" viewBox="0 0 1920 600" fill="none" xmlns="http://www.w3.org/2000/svg">
<rect width="1920" height="600" fill="#DAEDF9"/>
<g opacity="0.7" clip-path="url(#clip0_301_592)">
<circle cx="1269.23" cy="521.5" r="320.907" transform="rotate(78.3932 1269.23 521.5)" stroke="#000593"/>
<path opacity="0.3" d="M1328.53 811.008C1158.29 845.974 994.365 744.257 961.637 584.918C928.91 425.578 1039.48 267.482 1209.72 232.516C1379.96 197.549 1543.89 299.266 1576.61 458.606C1609.34 617.945 1498.78 776.042 1328.53 811.008Z" stroke="white" stroke-width="15"/>
<path d="M1325.33 793.006C1166.11 825.708 1012.11 730.595 981.307 580.638C950.506 430.681 1054.55 282.568 1213.77 249.865C1372.99 217.163 1526.99 312.276 1557.79 462.233C1588.59 612.19 1484.54 760.304 1325.33 793.006Z" stroke="#6AB6E8"/>
<path d="M1314.36 739.621C1181.59 766.891 1058.83 687.2 1034.69 569.673C1010.55 452.147 1091.96 330.521 1224.73 303.251C1357.5 275.981 1480.26 355.671 1504.4 473.198C1528.54 590.725 1447.13 712.35 1314.36 739.621Z" stroke="url(#paint0_linear_301_592)" stroke-opacity="0.5" stroke-width="110"/>
<path d="M1325.33 793.006C1166.11 825.708 1012.11 730.595 981.307 580.638C950.506 430.681 1054.55 282.568 1213.77 249.865C1372.99 217.163 1526.99 312.276 1557.79 462.233C1588.59 612.19 1484.54 760.304 1325.33 793.006Z" stroke="#000593"/>
<path d="M1313.78 736.818C1185.13 763.242 1060.9 687.3 1036.25 567.28C1011.6 447.26 1095.84 328.5 1224.49 302.076C1353.14 275.652 1477.37 351.594 1502.02 471.614C1526.67 591.634 1442.44 710.394 1313.78 736.818Z" stroke="#000593"/>
</g>
<g opacity="0.78">
<g opacity="0.6">
<mask id="path-8-inside-1_301_592" fill="white">
<path fill-rule="evenodd" clip-rule="evenodd" d="M995.703 156.875L1026.44 180.158L1054.71 142.838L1090.93 170.279L1114.21 139.545L1077.99 112.104L1105.43 75.882L1074.7 52.5992L1047.26 88.8215L1018.42 66.9748L995.137 97.7087L1023.97 119.555L995.703 156.875Z"/>
</mask>
<path fill-rule="evenodd" clip-rule="evenodd" d="M995.703 156.875L1026.44 180.158L1054.71 142.838L1090.93 170.279L1114.21 139.545L1077.99 112.104L1105.43 75.882L1074.7 52.5992L1047.26 88.8215L1018.42 66.9748L995.137 97.7087L1023.97 119.555L995.703 156.875Z" fill="url(#paint1_linear_301_592)" fill-opacity="0.5"/>
<path d="M1026.44 180.158L1025.83 180.955L1026.63 181.559L1027.23 180.761L1026.44 180.158ZM995.703 156.875L994.906 156.271L994.302 157.068L995.099 157.672L995.703 156.875ZM1054.71 142.838L1055.31 142.041L1054.52 141.437L1053.91 142.234L1054.71 142.838ZM1090.93 170.279L1090.33 171.076L1091.12 171.68L1091.73 170.883L1090.93 170.279ZM1114.21 139.545L1115.01 140.149L1115.61 139.352L1114.82 138.748L1114.21 139.545ZM1077.99 112.104L1077.19 111.5L1076.59 112.298L1077.39 112.901L1077.99 112.104ZM1105.43 75.882L1106.23 76.4859L1106.83 75.6888L1106.04 75.0849L1105.43 75.882ZM1074.7 52.5992L1075.3 51.8021L1074.5 51.1982L1073.9 51.9953L1074.7 52.5992ZM1047.26 88.8215L1046.65 89.6186L1047.45 90.2224L1048.05 89.4253L1047.26 88.8215ZM1018.42 66.9748L1019.02 66.1777L1018.23 65.5739L1017.62 66.371L1018.42 66.9748ZM995.137 97.7087L994.34 97.1048L993.736 97.9019L994.533 98.5058L995.137 97.7087ZM1023.97 119.555L1024.77 120.159L1025.38 119.362L1024.58 118.758L1023.97 119.555ZM1027.04 179.36L996.307 156.078L995.099 157.672L1025.83 180.955L1027.04 179.36ZM1053.91 142.234L1025.64 179.554L1027.23 180.761L1055.51 143.442L1053.91 142.234ZM1091.53 169.482L1055.31 142.041L1054.1 143.635L1090.33 171.076L1091.53 169.482ZM1113.42 138.941L1090.13 169.675L1091.73 170.883L1115.01 140.149L1113.42 138.941ZM1077.39 112.901L1113.61 140.342L1114.82 138.748L1078.6 111.307L1077.39 112.901ZM1104.63 75.2782L1077.19 111.5L1078.79 112.708L1106.23 76.4859L1104.63 75.2782ZM1074.09 53.3963L1104.83 76.6791L1106.04 75.0849L1075.3 51.8021L1074.09 53.3963ZM1048.05 89.4253L1075.5 53.203L1073.9 51.9953L1046.46 88.2176L1048.05 89.4253ZM1017.82 67.7719L1046.65 89.6186L1047.86 88.0244L1019.02 66.1777L1017.82 67.7719ZM995.934 98.3125L1019.22 67.5787L1017.62 66.371L994.34 97.1048L995.934 98.3125ZM1024.58 118.758L995.74 96.9116L994.533 98.5058L1023.37 120.352L1024.58 118.758ZM996.5 157.479L1024.77 120.159L1023.18 118.951L994.906 156.271L996.5 157.479Z" fill="#000593" mask="url(#path-8-inside-1_301_592)"/>
</g>
<g opacity="0.6">
<mask id="path-10-inside-2_301_592" fill="white">
<path fill-rule="evenodd" clip-rule="evenodd" d="M1007.78 166.022L1038.51 189.305L1066.78 151.985L1092.03 171.11L1092.03 171.11L1104.1 180.257L1127.39 149.523L1090.07 121.251L1117.51 85.029L1105.43 75.8821L1105.43 75.8819L1074.7 52.599L1047.26 88.8212L1024.21 71.3592L1018.83 67.2866L995.549 98.0204L1023.97 119.555L995.703 156.875L1007.78 166.022L1007.78 166.022Z"/>
</mask>
<path d="M1038.51 189.305L1037.91 190.102L1038.7 190.705L1039.31 189.908L1038.51 189.305ZM1007.78 166.022L1006.98 165.418L1006.38 166.215L1007.17 166.819L1007.78 166.022ZM1066.78 151.985L1067.39 151.188L1066.59 150.584L1065.99 151.381L1066.78 151.985ZM1092.03 171.11L1091.42 171.907L1092.22 172.511L1092.83 171.714L1092.03 171.11ZM1092.03 171.11L1092.63 170.313L1091.84 169.709L1091.23 170.506L1092.03 171.11ZM1104.1 180.257L1103.5 181.054L1104.3 181.658L1104.9 180.861L1104.1 180.257ZM1127.39 149.523L1128.18 150.127L1128.79 149.33L1127.99 148.726L1127.39 149.523ZM1090.07 121.251L1089.27 120.647L1088.66 121.444L1089.46 122.048L1090.07 121.251ZM1117.51 85.029L1118.3 85.6328L1118.91 84.8357L1118.11 84.2319L1117.51 85.029ZM1105.43 75.8821L1104.63 75.2782L1104.03 76.0753L1104.83 76.6792L1105.43 75.8821ZM1105.43 75.8819L1106.23 76.4857L1106.83 75.6886L1106.04 75.0848L1105.43 75.8819ZM1074.7 52.599L1075.3 51.802L1074.5 51.1981L1073.9 51.9952L1074.7 52.599ZM1047.26 88.8212L1046.65 89.6183L1047.45 90.2221L1048.05 89.425L1047.26 88.8212ZM1024.21 71.3592L1024.81 70.5621L1024.81 70.5621L1024.21 71.3592ZM1018.83 67.2866L1019.44 66.4895L1018.64 65.8856L1018.03 66.6827L1018.83 67.2866ZM995.549 98.0204L994.752 97.4166L994.148 98.2137L994.945 98.8175L995.549 98.0204ZM1023.97 119.555L1024.77 120.159L1025.38 119.362L1024.58 118.758L1023.97 119.555ZM995.703 156.875L994.906 156.271L994.302 157.068L995.099 157.672L995.703 156.875ZM1007.78 166.022L1008.57 166.625L1009.18 165.828L1008.38 165.224L1007.78 166.022ZM1039.11 188.507L1008.38 165.225L1007.17 166.819L1037.91 190.102L1039.11 188.507ZM1065.99 151.381L1037.71 188.701L1039.31 189.908L1067.58 152.589L1065.99 151.381ZM1092.63 170.313L1067.39 151.188L1066.18 152.782L1091.42 171.907L1092.63 170.313ZM1091.23 170.506L1091.23 170.506L1092.83 171.714L1092.83 171.714L1091.23 170.506ZM1104.71 179.46L1092.63 170.313L1091.42 171.907L1103.5 181.054L1104.71 179.46ZM1126.59 148.919L1103.31 179.653L1104.9 180.861L1128.18 150.127L1126.59 148.919ZM1089.46 122.048L1126.78 150.32L1127.99 148.726L1090.67 120.454L1089.46 122.048ZM1116.71 84.4251L1089.27 120.647L1090.86 121.855L1118.3 85.6328L1116.71 84.4251ZM1104.83 76.6792L1116.9 85.8261L1118.11 84.2319L1106.04 75.085L1104.83 76.6792ZM1104.63 75.278L1104.63 75.2782L1106.23 76.4859L1106.23 76.4857L1104.63 75.278ZM1074.09 53.3961L1104.83 76.679L1106.04 75.0848L1075.3 51.802L1074.09 53.3961ZM1048.05 89.425L1075.5 53.2029L1073.9 51.9952L1046.46 88.2173L1048.05 89.425ZM1023.6 72.1563L1046.65 89.6183L1047.86 88.0241L1024.81 70.5621L1023.6 72.1563ZM1018.23 68.0837L1023.6 72.1563L1024.81 70.5621L1019.44 66.4895L1018.23 68.0837ZM996.346 98.6243L1019.63 67.8904L1018.03 66.6827L994.752 97.4166L996.346 98.6243ZM1024.58 118.758L996.153 97.2233L994.945 98.8175L1023.37 120.352L1024.58 118.758ZM996.5 157.478L1024.77 120.159L1023.18 118.951L994.906 156.271L996.5 157.478ZM1008.38 165.224L996.307 156.078L995.099 157.672L1007.17 166.819L1008.38 165.224ZM1008.57 166.626L1008.57 166.625L1006.98 165.418L1006.98 165.418L1008.57 166.626Z" fill="#000593" mask="url(#path-10-inside-2_301_592)"/>
</g>
</g>
<defs>
<linearGradient id="paint0_linear_301_592" x1="-7441.91" y1="2024.98" x2="-7333.17" y2="2554.17" gradientUnits="userSpaceOnUse">
<stop stop-color="#6AB6E8"/>
<stop offset="1" stop-color="#000593"/>
</linearGradient>
<linearGradient id="paint1_linear_301_592" x1="2286.53" y1="-1407.17" x2="2193.36" y2="-1477.75" gradientUnits="userSpaceOnUse">
<stop stop-color="#6AB6E8"/>
<stop offset="1" stop-color="#000593"/>
</linearGradient>
<clipPath id="clip0_301_592">
<rect width="851.887" height="600" fill="white" transform="translate(1662.73 600) rotate(-180)"/>
</clipPath>
</defs>
</svg>
