<svg width="330" height="522" viewBox="0 0 330 522" fill="none" xmlns="http://www.w3.org/2000/svg">
<path opacity="0.2" d="M0 0H326C328.209 0 330 1.79086 330 4V518C330 520.209 328.209 522 326 522H0V0Z" fill="url(#paint0_radial_305_623)"/>
<g opacity="0.7" clip-path="url(#clip0_305_623)">
<circle cx="379.5" cy="569.5" r="320.907" transform="rotate(78.3932 379.5 569.5)" stroke="#000593"/>
<circle cx="118.5" cy="136.5" r="162.533" transform="rotate(78.3932 118.5 136.5)" stroke="#000593"/>
<path opacity="0.3" d="M438.803 859.007C268.563 893.974 104.633 792.257 71.9055 632.917C39.1782 473.578 149.744 315.481 319.985 280.515C490.225 245.549 654.155 347.266 686.882 506.605C719.609 665.944 609.043 824.041 438.803 859.007Z" stroke="white" stroke-width="15"/>
<path opacity="0.3" d="M147.838 279.731C63.2766 297.1 -17.7572 246.549 -33.9061 167.925C-50.055 89.3002 4.49345 10.9018 89.0546 -6.46653C173.616 -23.8348 254.649 26.7159 270.798 105.34C286.947 183.965 232.399 262.363 147.838 279.731Z" stroke="white" stroke-width="15"/>
<path d="M435.593 841.006C276.375 873.708 122.375 778.595 91.5746 628.638C60.7744 478.681 164.817 330.567 324.036 297.865C483.254 265.163 637.254 360.276 668.055 510.233C698.855 660.19 594.812 808.303 435.593 841.006Z" stroke="#6AB6E8"/>
<path d="M146.904 273.979C66.2602 290.543 -11.7146 242.367 -27.3078 166.448C-42.901 90.5293 9.77216 15.519 90.4156 -1.04462C171.059 -17.6082 249.034 30.5678 264.627 106.486C280.22 182.405 227.547 257.415 146.904 273.979Z" stroke="#6AB6E8"/>
<path d="M424.628 787.62C291.859 814.89 169.099 735.2 144.96 617.673C120.821 500.146 202.231 378.521 335.001 351.251C467.771 323.981 590.53 403.671 614.669 521.198C638.808 638.724 557.398 760.35 424.628 787.62Z" stroke="url(#paint1_linear_305_623)" stroke-opacity="0.5" stroke-width="110"/>
<path opacity="0.4" d="M141.974 249.98C73.2207 264.101 9.29 222.858 -3.30878 161.519C-15.9076 100.179 26.5912 37.0759 95.3448 22.9544C164.098 8.83285 228.029 50.0759 240.628 111.416C253.227 172.755 210.728 235.858 141.974 249.98Z" stroke="url(#paint2_linear_305_623)" stroke-opacity="0.5" stroke-width="50"/>
<path d="M435.593 841.006C276.375 873.708 122.375 778.595 91.5746 628.638C60.7744 478.681 164.817 330.567 324.036 297.865C483.254 265.163 637.254 360.276 668.055 510.233C698.855 660.19 594.812 808.303 435.593 841.006Z" stroke="#000593"/>
<path d="M146.904 273.979C66.2602 290.543 -11.7146 242.367 -27.3078 166.448C-42.901 90.5293 9.77216 15.519 90.4156 -1.04462C171.059 -17.6082 249.034 30.5678 264.627 106.486C280.22 182.405 227.547 257.415 146.904 273.979Z" stroke="#000593"/>
<path d="M424.053 784.818C295.402 811.242 171.173 735.299 146.522 615.28C121.87 495.26 206.109 376.499 334.759 350.075C463.41 323.651 587.639 399.594 612.29 519.614C636.942 639.634 552.703 758.394 424.053 784.818Z" stroke="#000593"/>
<path d="M141.05 245.478C75.9094 258.857 13.0377 220.403 0.563926 159.672C-11.9098 98.941 30.7148 38.8183 95.8551 25.4389C160.995 12.0595 223.867 50.514 236.341 111.245C248.815 171.976 206.19 232.098 141.05 245.478Z" stroke="#000593"/>
<g opacity="0.78">
<g opacity="0.6">
<mask id="path-14-inside-1_305_623" fill="white">
<path fill-rule="evenodd" clip-rule="evenodd" d="M66.6506 389.829L78.77 373.831L59.3441 359.114L73.6278 340.26L57.6298 328.14L43.3461 346.995L24.4913 332.711L12.3719 348.709L31.2267 362.993L19.8549 378.004L35.8528 390.123L47.2246 375.112L66.6506 389.829Z"/>
</mask>
<path fill-rule="evenodd" clip-rule="evenodd" d="M66.6506 389.829L78.77 373.831L59.3441 359.114L73.6278 340.26L57.6298 328.14L43.3461 346.995L24.4913 332.711L12.3719 348.709L31.2267 362.993L19.8549 378.004L35.8528 390.123L47.2246 375.112L66.6506 389.829Z" fill="url(#paint3_linear_305_623)" fill-opacity="0.5"/>
<path d="M78.77 373.831L79.5671 374.435L80.171 373.638L79.3739 373.034L78.77 373.831ZM66.6506 389.829L66.0467 390.626L66.8438 391.23L67.4477 390.433L66.6506 389.829ZM59.3441 359.115L58.547 358.511L57.9431 359.308L58.7402 359.912L59.3441 359.115ZM73.6278 340.26L74.4249 340.864L75.0287 340.066L74.2316 339.463L73.6278 340.26ZM57.6298 328.14L58.2337 327.343L57.4366 326.739L56.8327 327.536L57.6298 328.14ZM43.3461 346.995L42.7423 347.792L43.5394 348.396L44.1432 347.599L43.3461 346.995ZM24.4913 332.711L25.0951 331.914L24.298 331.31L23.6942 332.108L24.4913 332.711ZM12.3719 348.709L11.5748 348.105L10.9709 348.903L11.768 349.506L12.3719 348.709ZM31.2267 362.993L32.0238 363.597L32.6276 362.8L31.8305 362.196L31.2267 362.993ZM19.8549 378.004L19.0578 377.4L18.4539 378.197L19.251 378.801L19.8549 378.004ZM35.8528 390.124L35.2489 390.921L36.046 391.524L36.6499 390.727L35.8528 390.124ZM47.2246 375.112L47.8285 374.315L47.0314 373.712L46.4275 374.509L47.2246 375.112ZM77.9729 373.227L65.8535 389.225L67.4477 390.433L79.5671 374.435L77.9729 373.227ZM58.7402 359.912L78.1662 374.628L79.3739 373.034L59.9479 358.317L58.7402 359.912ZM72.8307 339.656L58.547 358.511L60.1412 359.718L74.4249 340.864L72.8307 339.656ZM57.026 328.937L73.0239 341.057L74.2316 339.463L58.2337 327.343L57.026 328.937ZM44.1432 347.599L58.4269 328.744L56.8327 327.536L42.549 346.391L44.1432 347.599ZM23.8874 333.508L42.7423 347.792L43.95 346.198L25.0951 331.914L23.8874 333.508ZM13.169 349.313L25.2884 333.315L23.6942 332.108L11.5748 348.105L13.169 349.313ZM31.8305 362.196L12.9757 347.912L11.768 349.506L30.6228 363.79L31.8305 362.196ZM20.6519 378.608L32.0238 363.597L30.4296 362.389L19.0578 377.4L20.6519 378.608ZM36.4566 389.326L20.4587 377.207L19.251 378.801L35.2489 390.921L36.4566 389.326ZM46.4275 374.509L35.0557 389.52L36.6499 390.727L48.0217 375.716L46.4275 374.509ZM67.2544 389.032L47.8285 374.315L46.6208 375.91L66.0467 390.626L67.2544 389.032Z" fill="#000593" mask="url(#path-14-inside-1_305_623)"/>
</g>
<g opacity="0.6">
<mask id="path-16-inside-2_305_623" fill="white">
<path fill-rule="evenodd" clip-rule="evenodd" d="M71.4119 383.544L83.5313 367.546L64.1052 352.829L74.0604 339.688L74.0603 339.688L78.8216 333.403L62.8237 321.284L48.1072 340.71L29.2526 326.426L24.4913 332.711L24.4912 332.711L12.3718 348.709L31.2265 362.993L22.137 374.991L22.1371 374.991L20.0171 377.79L36.015 389.909L47.2245 375.112L66.6505 389.829L71.4118 383.544L71.4119 383.544Z"/>
</mask>
<path d="M83.5313 367.546L84.3284 368.15L84.9322 367.353L84.1351 366.749L83.5313 367.546ZM71.4118 383.544L70.808 384.341L71.6051 384.945L72.2089 384.148L71.4118 383.544ZM64.1052 352.83L63.3081 352.226L62.7042 353.023L63.5013 353.627L64.1052 352.83ZM74.0603 339.688L74.8574 340.292L75.4613 339.495L74.6642 338.891L74.0603 339.688ZM74.0603 339.688L73.2632 339.085L72.6593 339.882L73.4564 340.485L74.0603 339.688ZM78.8216 333.403L79.6187 334.007L80.2226 333.21L79.4255 332.606L78.8216 333.403ZM62.8237 321.284L63.4275 320.487L62.6304 319.883L62.0266 320.68L62.8237 321.284ZM48.1072 340.71L47.5033 341.507L48.3004 342.111L48.9043 341.314L48.1072 340.71ZM29.2526 326.426L29.8564 325.629L29.0593 325.026L28.4555 325.823L29.2526 326.426ZM24.4913 332.711L23.8875 333.509L24.6846 334.112L25.2884 333.315L24.4913 332.711ZM24.4912 332.711L25.0951 331.914L24.298 331.31L23.6941 332.108L24.4912 332.711ZM12.3718 348.709L11.5747 348.105L10.9708 348.903L11.7679 349.506L12.3718 348.709ZM31.2265 362.993L32.0236 363.597L32.6274 362.8L31.8303 362.196L31.2265 362.993ZM22.137 374.991L21.3399 374.387L20.736 375.184L21.5331 375.788L22.137 374.991ZM22.1371 374.991L22.9342 375.595L23.538 374.798L22.7409 374.194L22.1371 374.991ZM20.0171 377.79L19.22 377.186L18.6161 377.983L19.4132 378.587L20.0171 377.79ZM36.015 389.909L35.4111 390.706L36.2082 391.31L36.8121 390.513L36.015 389.909ZM47.2245 375.112L47.8283 374.315L47.0312 373.711L46.4274 374.509L47.2245 375.112ZM66.6505 389.829L66.0466 390.626L66.8437 391.23L67.4476 390.433L66.6505 389.829ZM71.4117 383.544L72.0156 382.747L71.2185 382.143L70.6146 382.94L71.4117 383.544ZM82.7342 366.942L70.6147 382.94L72.2089 384.148L84.3284 368.15L82.7342 366.942ZM63.5013 353.627L82.9274 368.343L84.1351 366.749L64.709 352.032L63.5013 353.627ZM73.2632 339.085L63.3081 352.226L64.9023 353.433L74.8574 340.292L73.2632 339.085ZM73.4564 340.485L73.4565 340.486L74.6642 338.891L74.6641 338.891L73.4564 340.485ZM78.0245 332.799L73.2632 339.085L74.8574 340.292L79.6187 334.007L78.0245 332.799ZM62.2198 322.081L78.2178 334.2L79.4255 332.606L63.4275 320.487L62.2198 322.081ZM48.9043 341.314L63.6208 321.888L62.0266 320.68L47.3101 340.106L48.9043 341.314ZM28.6487 327.224L47.5033 341.507L48.711 339.913L29.8564 325.629L28.6487 327.224ZM25.2884 333.315L30.0497 327.03L28.4555 325.823L23.6942 332.108L25.2884 333.315ZM23.8874 333.508L23.8875 333.509L25.0952 331.914L25.0951 331.914L23.8874 333.508ZM13.1689 349.313L25.2883 333.315L23.6941 332.108L11.5747 348.105L13.1689 349.313ZM31.8303 362.196L12.9756 347.912L11.7679 349.506L30.6226 363.79L31.8303 362.196ZM22.9341 375.595L32.0236 363.597L30.4294 362.389L21.3399 374.387L22.9341 375.595ZM22.7409 374.194L22.7408 374.194L21.5331 375.788L21.5332 375.788L22.7409 374.194ZM20.8142 378.394L22.9342 375.595L21.34 374.387L19.22 377.186L20.8142 378.394ZM36.6188 389.112L20.6209 376.993L19.4132 378.587L35.4111 390.706L36.6188 389.112ZM46.4274 374.509L35.2179 389.305L36.8121 390.513L48.0216 375.716L46.4274 374.509ZM67.2543 389.032L47.8283 374.315L46.6206 375.91L66.0466 390.626L67.2543 389.032ZM70.6146 382.94L65.8534 389.225L67.4476 390.433L72.2088 384.148L70.6146 382.94ZM72.0157 382.747L72.0156 382.747L70.8079 384.341L70.808 384.341L72.0157 382.747Z" fill="#000593" mask="url(#path-16-inside-2_305_623)"/>
</g>
</g>
</g>
<defs>
<radialGradient id="paint0_radial_305_623" cx="0" cy="0" r="1" gradientUnits="userSpaceOnUse" gradientTransform="translate(304.5 45.4999) rotate(109.465) scale(571.674 3812.81)">
<stop stop-color="#6AB6E8" stop-opacity="0"/>
<stop offset="0.0001" stop-color="#6AB6E8" stop-opacity="0.71"/>
<stop offset="1" stop-color="#6AB6E8"/>
</radialGradient>
<linearGradient id="paint1_linear_305_623" x1="-8331.64" y1="2072.98" x2="-8222.9" y2="2602.17" gradientUnits="userSpaceOnUse">
<stop stop-color="#6AB6E8"/>
<stop offset="1" stop-color="#000593"/>
</linearGradient>
<linearGradient id="paint2_linear_305_623" x1="-4300.19" y1="899.136" x2="-4245.03" y2="1167.56" gradientUnits="userSpaceOnUse">
<stop stop-color="#6AB6E8"/>
<stop offset="1" stop-color="#000593"/>
</linearGradient>
<linearGradient id="paint3_linear_305_623" x1="-747.486" y1="-282.088" x2="-784.221" y2="-233.589" gradientUnits="userSpaceOnUse">
<stop stop-color="#6AB6E8"/>
<stop offset="1" stop-color="#000593"/>
</linearGradient>
<clipPath id="clip0_305_623">
<rect width="330" height="522" fill="white" transform="translate(330 522) rotate(-180)"/>
</clipPath>
</defs>
</svg>
