<svg width="1920" height="1997" viewBox="0 0 1920 1997" fill="none" xmlns="http://www.w3.org/2000/svg">
<rect width="1920" height="1997" fill="#DAEDF9"/>
<g opacity="0.2">
<g opacity="0.78">
<g opacity="0.6">
<mask id="path-2-inside-1_305_622" fill="white">
<path fill-rule="evenodd" clip-rule="evenodd" d="M225.811 1562.62L285.233 1607.64L339.897 1535.48L409.931 1588.54L454.947 1529.12L384.913 1476.06L437.968 1406.03L378.545 1361.01L325.49 1431.04L269.733 1388.8L224.717 1448.23L280.474 1490.47L225.811 1562.62Z"/>
</mask>
<path fill-rule="evenodd" clip-rule="evenodd" d="M225.811 1562.62L285.233 1607.64L339.897 1535.48L409.931 1588.54L454.947 1529.12L384.913 1476.06L437.968 1406.03L378.545 1361.01L325.49 1431.04L269.733 1388.8L224.717 1448.23L280.474 1490.47L225.811 1562.62Z" fill="url(#paint0_linear_305_622)" fill-opacity="0.5"/>
<path d="M285.233 1607.64L284.63 1608.44L285.427 1609.04L286.031 1608.24L285.233 1607.64ZM225.811 1562.62L225.014 1562.02L224.41 1562.82L225.207 1563.42L225.811 1562.62ZM339.897 1535.48L340.5 1534.69L339.703 1534.08L339.1 1534.88L339.897 1535.48ZM409.931 1588.54L409.327 1589.33L410.124 1589.94L410.728 1589.14L409.931 1588.54ZM454.947 1529.12L455.744 1529.72L456.348 1528.92L455.551 1528.32L454.947 1529.12ZM384.913 1476.06L384.116 1475.46L383.512 1476.25L384.309 1476.86L384.913 1476.06ZM437.968 1406.03L438.765 1406.63L439.369 1405.83L438.571 1405.23L437.968 1406.03ZM378.545 1361.01L379.149 1360.21L378.352 1359.61L377.748 1360.41L378.545 1361.01ZM325.49 1431.04L324.886 1431.84L325.684 1432.44L326.287 1431.65L325.49 1431.04ZM269.733 1388.8L270.337 1388.01L269.54 1387.4L268.936 1388.2L269.733 1388.8ZM224.717 1448.23L223.92 1447.62L223.316 1448.42L224.113 1449.02L224.717 1448.23ZM280.474 1490.47L281.271 1491.07L281.875 1490.27L281.078 1489.67L280.474 1490.47ZM285.837 1606.84L226.415 1561.83L225.207 1563.42L284.63 1608.44L285.837 1606.84ZM339.1 1534.88L284.436 1607.04L286.031 1608.24L340.694 1536.09L339.1 1534.88ZM410.535 1587.74L340.5 1534.69L339.293 1536.28L409.327 1589.33L410.535 1587.74ZM454.15 1528.51L409.134 1587.93L410.728 1589.14L455.744 1529.72L454.15 1528.51ZM384.309 1476.86L454.343 1529.91L455.551 1528.32L385.517 1475.26L384.309 1476.86ZM437.171 1405.42L384.116 1475.46L385.71 1476.66L438.765 1406.63L437.171 1405.42ZM377.941 1361.81L437.364 1406.82L438.571 1405.23L379.149 1360.21L377.941 1361.81ZM326.287 1431.65L379.342 1361.61L377.748 1360.41L324.693 1430.44L326.287 1431.65ZM269.129 1389.6L324.886 1431.84L326.094 1430.25L270.337 1388.01L269.129 1389.6ZM225.514 1448.83L270.53 1389.41L268.936 1388.2L223.92 1447.62L225.514 1448.83ZM281.078 1489.67L225.321 1447.43L224.113 1449.02L279.87 1491.26L281.078 1489.67ZM226.608 1563.23L281.271 1491.07L279.677 1489.86L225.014 1562.02L226.608 1563.23Z" fill="#000593" mask="url(#path-2-inside-1_305_622)"/>
</g>
<g opacity="0.6">
<mask id="path-4-inside-2_305_622" fill="white">
<path fill-rule="evenodd" clip-rule="evenodd" d="M249.155 1580.31L308.578 1625.33L363.241 1553.17L435.397 1607.84L480.414 1548.41L457.068 1530.73L457.069 1530.73L408.258 1493.75L461.312 1423.72L437.967 1406.03L437.967 1406.03L378.545 1361.01L325.49 1431.05L270.529 1389.41L225.513 1448.83L235.907 1456.71L235.907 1456.71L280.473 1490.47L225.811 1562.63L249.156 1580.31L249.155 1580.31Z"/>
</mask>
<path d="M308.578 1625.33L307.974 1626.13L308.771 1626.73L309.375 1625.93L308.578 1625.33ZM249.155 1580.31L248.358 1579.71L247.755 1580.51L248.552 1581.11L249.155 1580.31ZM363.241 1553.17L363.845 1552.38L363.048 1551.77L362.444 1552.57L363.241 1553.17ZM435.397 1607.84L434.794 1608.63L435.591 1609.24L436.194 1608.44L435.397 1607.84ZM480.414 1548.41L481.211 1549.02L481.815 1548.22L481.018 1547.62L480.414 1548.41ZM457.068 1530.73L456.271 1530.12L455.667 1530.92L456.465 1531.53L457.068 1530.73ZM457.069 1530.73L457.866 1531.33L458.47 1530.53L457.673 1529.93L457.069 1530.73ZM408.258 1493.75L407.461 1493.15L406.857 1493.94L407.654 1494.55L408.258 1493.75ZM461.312 1423.72L462.109 1424.32L462.713 1423.52L461.916 1422.92L461.312 1423.72ZM437.967 1406.03L437.17 1405.43L436.566 1406.22L437.363 1406.83L437.967 1406.03ZM437.967 1406.03L438.765 1406.63L439.368 1405.84L438.571 1405.23L437.967 1406.03ZM378.545 1361.01L379.149 1360.22L378.352 1359.61L377.748 1360.41L378.545 1361.01ZM325.49 1431.05L324.886 1431.85L325.683 1432.45L326.287 1431.65L325.49 1431.05ZM270.529 1389.41L271.133 1388.61L270.336 1388.01L269.732 1388.81L270.529 1389.41ZM225.513 1448.83L224.716 1448.23L224.112 1449.03L224.909 1449.63L225.513 1448.83ZM235.907 1456.71L236.704 1457.31L237.308 1456.52L236.511 1455.91L235.907 1456.71ZM235.907 1456.71L235.11 1456.11L234.506 1456.9L235.303 1457.51L235.907 1456.71ZM280.473 1490.47L281.27 1491.07L281.874 1490.28L281.077 1489.67L280.473 1490.47ZM225.811 1562.63L225.013 1562.02L224.41 1562.82L225.207 1563.42L225.811 1562.63ZM249.156 1580.31L249.953 1580.92L250.557 1580.12L249.76 1579.52L249.156 1580.31ZM309.182 1624.53L249.759 1579.52L248.552 1581.11L307.974 1626.13L309.182 1624.53ZM362.444 1552.57L307.781 1624.73L309.375 1625.93L364.038 1553.78L362.444 1552.57ZM436.001 1607.04L363.845 1552.38L362.637 1553.97L434.794 1608.63L436.001 1607.04ZM479.617 1547.81L434.6 1607.23L436.194 1608.44L481.211 1549.02L479.617 1547.81ZM456.465 1531.53L479.81 1549.21L481.018 1547.62L457.672 1529.93L456.465 1531.53ZM456.272 1530.12L456.271 1530.12L457.866 1531.33L457.866 1531.33L456.272 1530.12ZM407.654 1494.55L456.465 1531.52L457.673 1529.93L408.862 1492.95L407.654 1494.55ZM460.515 1423.11L407.461 1493.15L409.055 1494.35L462.109 1424.32L460.515 1423.11ZM437.363 1406.83L460.708 1424.51L461.916 1422.92L438.571 1405.23L437.363 1406.83ZM437.17 1405.43L437.17 1405.43L438.764 1406.63L438.765 1406.63L437.17 1405.43ZM377.941 1361.81L437.364 1406.83L438.571 1405.23L379.149 1360.22L377.941 1361.81ZM326.287 1431.65L379.342 1361.62L377.748 1360.41L324.693 1430.44L326.287 1431.65ZM269.925 1390.21L324.886 1431.85L326.093 1430.25L271.133 1388.61L269.925 1390.21ZM226.31 1449.44L271.326 1390.02L269.732 1388.81L224.716 1448.23L226.31 1449.44ZM236.511 1455.91L226.117 1448.04L224.909 1449.63L235.304 1457.51L236.511 1455.91ZM236.704 1457.31L236.704 1457.31L235.11 1456.11L235.11 1456.11L236.704 1457.31ZM281.077 1489.67L236.511 1455.91L235.303 1457.51L279.869 1491.27L281.077 1489.67ZM226.608 1563.23L281.27 1491.07L279.676 1489.87L225.013 1562.02L226.608 1563.23ZM249.76 1579.52L226.414 1561.83L225.207 1563.42L248.552 1581.11L249.76 1579.52ZM249.953 1580.92L249.953 1580.92L248.359 1579.71L248.358 1579.71L249.953 1580.92Z" fill="#000593" mask="url(#path-4-inside-2_305_622)"/>
</g>
</g>
</g>
<g opacity="0.1" clip-path="url(#clip0_305_622)">
<circle cx="199.5" cy="521.5" r="320.907" transform="rotate(78.3932 199.5 521.5)" stroke="#000593"/>
<path opacity="0.3" d="M258.803 811.007C88.5626 845.974 -75.3673 744.257 -108.095 584.917C-140.822 425.578 -30.2558 267.481 139.985 232.515C310.225 197.549 474.155 299.266 506.882 458.605C539.609 617.944 429.043 776.041 258.803 811.007Z" stroke="url(#paint1_linear_305_622)" stroke-width="15"/>
<path d="M255.593 793.006C96.375 825.708 -57.6251 730.595 -88.4254 580.638C-119.226 430.681 -15.1825 282.567 144.036 249.865C303.254 217.162 457.254 312.275 488.055 462.233C518.855 612.19 414.812 760.303 255.593 793.006Z" stroke="#000593"/>
<path d="M244.628 739.62C111.859 766.89 -10.9006 687.199 -35.0398 569.673C-59.179 452.146 22.2311 330.52 155.001 303.25C287.771 275.98 410.53 355.671 434.669 473.198C458.808 590.724 377.398 712.35 244.628 739.62Z" stroke="url(#paint2_linear_305_622)" stroke-opacity="0.5" stroke-width="110"/>
<path d="M255.593 793.006C96.375 825.708 -57.6251 730.595 -88.4254 580.638C-119.226 430.681 -15.1825 282.567 144.036 249.865C303.254 217.162 457.254 312.275 488.055 462.233C518.855 612.19 414.812 760.303 255.593 793.006Z" stroke="#000593"/>
<path d="M244.052 736.818C115.402 763.242 -8.82739 687.299 -33.4786 567.279C-58.1299 447.26 26.1084 328.499 154.759 302.075C283.41 275.651 407.639 351.594 432.29 471.614C456.941 591.633 372.703 710.394 244.052 736.818Z" stroke="#000593"/>
</g>
<g opacity="0.1" clip-path="url(#clip1_305_622)">
<circle cx="1377.5" cy="1822.62" r="429.199" transform="rotate(-41.6068 1377.5 1822.62)" stroke="#000593"/>
<path opacity="0.3" d="M1674.94 1558.76C1830.06 1733.42 1821.98 1992.83 1658.22 2138.26C1494.46 2283.68 1235.92 2261.05 1080.8 2086.38C925.688 1911.71 933.771 1652.31 1097.53 1506.88C1261.28 1361.46 1519.83 1384.09 1674.94 1558.76Z" stroke="url(#paint3_linear_305_622)" stroke-width="15"/>
<path d="M1654.48 1576.07C1798.83 1738.62 1791.66 1980.61 1638.55 2116.58C1485.44 2252.55 1244.3 2231.08 1099.95 2068.53C955.596 1905.98 962.769 1663.99 1115.88 1528.02C1268.99 1392.05 1510.13 1413.52 1654.48 1576.07Z" stroke="#000593"/>
<path d="M1613.73 1612.26C1740.15 1754.62 1730.72 1961.84 1602.36 2075.83C1474.01 2189.81 1267.12 2174.7 1140.7 2032.34C1014.28 1889.98 1023.71 1682.76 1152.07 1568.77C1280.42 1454.78 1487.31 1469.9 1613.73 1612.26Z" stroke="url(#paint4_linear_305_622)" stroke-opacity="0.5" stroke-width="110"/>
<path d="M1654.48 1576.07C1798.83 1738.62 1791.66 1980.61 1638.55 2116.58C1485.44 2252.55 1244.3 2231.08 1099.95 2068.53C955.596 1905.98 962.769 1663.99 1115.88 1528.02C1268.99 1392.05 1510.13 1413.52 1654.48 1576.07Z" stroke="#000593"/>
<path d="M1597.14 1626.99C1713.79 1758.34 1708.91 1953.05 1586.35 2061.89C1463.79 2170.73 1269.88 2152.56 1153.23 2021.21C1036.58 1889.86 1041.46 1695.15 1164.02 1586.31C1286.58 1477.47 1480.5 1495.64 1597.14 1626.99Z" stroke="#000593"/>
</g>
<g opacity="0.3">
<g opacity="0.78">
<g opacity="0.6">
<mask id="path-18-inside-3_305_622" fill="white">
<path fill-rule="evenodd" clip-rule="evenodd" d="M1592.63 198.643L1595.78 174.489L1566.45 170.667L1570.16 142.2L1546 139.052L1542.29 167.519L1513.83 163.81L1510.68 187.964L1539.15 191.673L1536.19 214.337L1560.35 217.485L1563.3 194.821L1592.63 198.643Z"/>
</mask>
<path fill-rule="evenodd" clip-rule="evenodd" d="M1592.63 198.643L1595.78 174.489L1566.45 170.667L1570.16 142.2L1546 139.052L1542.29 167.519L1513.83 163.81L1510.68 187.964L1539.15 191.673L1536.19 214.337L1560.35 217.485L1563.3 194.821L1592.63 198.643Z" fill="url(#paint5_linear_305_622)" fill-opacity="0.5"/>
<path d="M1595.78 174.489L1596.77 174.618L1596.9 173.627L1595.91 173.497L1595.78 174.489ZM1592.63 198.643L1592.5 199.634L1593.49 199.764L1593.62 198.772L1592.63 198.643ZM1566.45 170.667L1565.46 170.538L1565.33 171.529L1566.32 171.659L1566.45 170.667ZM1570.16 142.2L1571.15 142.329L1571.28 141.338L1570.29 141.208L1570.16 142.2ZM1546 139.052L1546.13 138.061L1545.14 137.932L1545.01 138.923L1546 139.052ZM1542.29 167.519L1542.16 168.511L1543.16 168.64L1543.29 167.649L1542.29 167.519ZM1513.83 163.81L1513.96 162.818L1512.96 162.689L1512.84 163.681L1513.83 163.81ZM1510.68 187.964L1509.69 187.834L1509.56 188.826L1510.55 188.955L1510.68 187.964ZM1539.15 191.673L1540.14 191.802L1540.27 190.811L1539.28 190.682L1539.15 191.673ZM1536.19 214.337L1535.2 214.208L1535.07 215.2L1536.06 215.329L1536.19 214.337ZM1560.35 217.485L1560.22 218.476L1561.21 218.605L1561.34 217.614L1560.35 217.485ZM1563.3 194.821L1563.43 193.829L1562.44 193.7L1562.31 194.691L1563.3 194.821ZM1594.79 174.36L1591.64 198.513L1593.62 198.772L1596.77 174.618L1594.79 174.36ZM1566.32 171.659L1595.65 175.481L1595.91 173.497L1566.58 169.675L1566.32 171.659ZM1569.17 142.071L1565.46 170.538L1567.44 170.796L1571.15 142.329L1569.17 142.071ZM1545.87 140.044L1570.03 143.192L1570.29 141.208L1546.13 138.061L1545.87 140.044ZM1543.29 167.649L1547 139.182L1545.01 138.923L1541.3 167.39L1543.29 167.649ZM1513.7 164.801L1542.16 168.511L1542.42 166.528L1513.96 162.818L1513.7 164.801ZM1511.67 188.093L1514.82 163.939L1512.84 163.681L1509.69 187.834L1511.67 188.093ZM1539.28 190.682L1510.81 186.972L1510.55 188.955L1539.02 192.665L1539.28 190.682ZM1537.18 214.466L1540.14 191.802L1538.15 191.544L1535.2 214.208L1537.18 214.466ZM1560.48 216.493L1536.32 213.346L1536.06 215.329L1560.22 218.476L1560.48 216.493ZM1562.31 194.691L1559.36 217.355L1561.34 217.614L1564.29 194.95L1562.31 194.691ZM1592.76 197.651L1563.43 193.829L1563.17 195.812L1592.5 199.634L1592.76 197.651Z" fill="#000593" mask="url(#path-18-inside-3_305_622)"/>
</g>
<g opacity="0.6">
<mask id="path-20-inside-4_305_622" fill="white">
<path fill-rule="evenodd" clip-rule="evenodd" d="M1593.87 189.153L1597.01 165L1567.69 161.178L1571.51 131.848L1547.35 128.7L1546.12 138.19L1546.12 138.19L1543.53 158.03L1515.06 154.32L1513.83 163.81L1513.83 163.81L1510.68 187.963L1539.15 191.673L1536.24 214.013L1560.39 217.161L1560.94 212.935L1560.94 212.935L1563.3 194.82L1592.63 198.642L1593.87 189.153L1593.87 189.153Z"/>
</mask>
<path fill-rule="evenodd" clip-rule="evenodd" d="M1593.87 189.153L1597.01 165L1567.69 161.178L1571.51 131.848L1547.35 128.7L1546.12 138.19L1546.12 138.19L1543.53 158.03L1515.06 154.32L1513.83 163.81L1513.83 163.81L1510.68 187.963L1539.15 191.673L1536.24 214.013L1560.39 217.161L1560.94 212.935L1560.94 212.935L1563.3 194.82L1592.63 198.642L1593.87 189.153L1593.87 189.153Z" fill="url(#paint6_linear_305_622)" fill-opacity="0.5"/>
<path d="M1597.01 165L1598.01 165.129L1598.14 164.137L1597.14 164.008L1597.01 165ZM1593.87 189.153L1593.74 190.145L1594.73 190.274L1594.86 189.282L1593.87 189.153ZM1567.69 161.178L1566.69 161.048L1566.56 162.04L1567.56 162.169L1567.69 161.178ZM1571.51 131.848L1572.5 131.977L1572.63 130.985L1571.64 130.856L1571.51 131.848ZM1547.35 128.7L1547.48 127.709L1546.49 127.579L1546.36 128.571L1547.35 128.7ZM1546.12 138.19L1545.99 139.181L1546.98 139.31L1547.11 138.319L1546.12 138.19ZM1546.12 138.19L1546.25 137.198L1545.25 137.069L1545.13 138.06L1546.12 138.19ZM1543.53 158.03L1543.4 159.022L1544.39 159.151L1544.52 158.159L1543.53 158.03ZM1515.06 154.32L1515.19 153.329L1514.2 153.2L1514.07 154.191L1515.06 154.32ZM1513.83 163.81L1513.7 164.801L1514.69 164.93L1514.82 163.939L1513.83 163.81ZM1513.83 163.81L1513.96 162.818L1512.97 162.689L1512.84 163.68L1513.83 163.81ZM1510.68 187.963L1509.69 187.834L1509.56 188.826L1510.55 188.955L1510.68 187.963ZM1539.15 191.673L1540.14 191.802L1540.27 190.811L1539.28 190.681L1539.15 191.673ZM1536.24 214.013L1535.24 213.884L1535.12 214.875L1536.11 215.005L1536.24 214.013ZM1560.39 217.161L1560.26 218.152L1561.25 218.281L1561.38 217.29L1560.39 217.161ZM1560.94 212.935L1561.07 211.944L1560.08 211.815L1559.95 212.806L1560.94 212.935ZM1560.94 212.935L1560.81 213.927L1561.8 214.056L1561.93 213.065L1560.94 212.935ZM1563.3 194.82L1563.43 193.829L1562.44 193.7L1562.31 194.691L1563.3 194.82ZM1592.63 198.642L1592.5 199.634L1593.49 199.763L1593.62 198.772L1592.63 198.642ZM1593.87 189.153L1594 188.162L1593 188.032L1592.88 189.024L1593.87 189.153ZM1596.02 164.87L1592.88 189.024L1594.86 189.282L1598.01 165.129L1596.02 164.87ZM1567.56 162.169L1596.89 165.991L1597.14 164.008L1567.81 160.186L1567.56 162.169ZM1570.52 131.719L1566.69 161.048L1568.68 161.307L1572.5 131.977L1570.52 131.719ZM1547.22 129.692L1571.38 132.839L1571.64 130.856L1547.48 127.709L1547.22 129.692ZM1547.11 138.319L1548.35 128.829L1546.36 128.571L1545.13 138.06L1547.11 138.319ZM1545.99 139.181L1545.99 139.181L1546.25 137.198L1546.25 137.198L1545.99 139.181ZM1544.52 158.159L1547.11 138.319L1545.13 138.06L1542.54 157.901L1544.52 158.159ZM1514.94 155.312L1543.4 159.022L1543.66 157.038L1515.19 153.329L1514.94 155.312ZM1514.82 163.939L1516.06 154.45L1514.07 154.191L1512.84 163.68L1514.82 163.939ZM1513.7 164.801L1513.7 164.801L1513.96 162.818L1513.96 162.818L1513.7 164.801ZM1511.67 188.093L1514.82 163.939L1512.84 163.68L1509.69 187.834L1511.67 188.093ZM1539.28 190.681L1510.81 186.972L1510.55 188.955L1539.02 192.665L1539.28 190.681ZM1537.23 214.142L1540.14 191.802L1538.16 191.544L1535.24 213.884L1537.23 214.142ZM1560.52 216.169L1536.37 213.021L1536.11 215.005L1560.26 218.152L1560.52 216.169ZM1559.95 212.806L1559.4 217.031L1561.38 217.29L1561.93 213.065L1559.95 212.806ZM1561.07 211.944L1561.07 211.944L1560.81 213.927L1560.81 213.927L1561.07 211.944ZM1562.31 194.691L1559.95 212.806L1561.93 213.065L1564.29 194.95L1562.31 194.691ZM1592.76 197.651L1563.43 193.829L1563.17 195.812L1592.5 199.634L1592.76 197.651ZM1592.88 189.024L1591.64 198.513L1593.62 198.772L1594.86 189.282L1592.88 189.024ZM1594 188.162L1594 188.162L1593.74 190.145L1593.74 190.145L1594 188.162Z" fill="#000593" mask="url(#path-20-inside-4_305_622)"/>
</g>
</g>
</g>
<defs>
<linearGradient id="paint0_linear_305_622" x1="255.522" y1="1585.13" x2="408.257" y2="1383.52" gradientUnits="userSpaceOnUse">
<stop stop-color="#6AB6E8"/>
<stop offset="1" stop-color="#000593"/>
</linearGradient>
<linearGradient id="paint1_linear_305_622" x1="514.229" y1="457.096" x2="500.228" y2="459.126" gradientUnits="userSpaceOnUse">
<stop stop-color="#6AB6E8"/>
<stop offset="1" stop-color="#6AB6E8" stop-opacity="0"/>
</linearGradient>
<linearGradient id="paint2_linear_305_622" x1="492.852" y1="483.102" x2="-84.6079" y2="601.709" gradientUnits="userSpaceOnUse">
<stop stop-color="#000593"/>
<stop offset="1" stop-color="white"/>
</linearGradient>
<linearGradient id="paint3_linear_305_622" x1="1092.55" y1="1501.27" x2="1104.26" y2="1516.13" gradientUnits="userSpaceOnUse">
<stop stop-color="#000593"/>
<stop offset="1" stop-color="white" stop-opacity="0"/>
</linearGradient>
<linearGradient id="paint4_linear_305_622" x1="1136.95" y1="1508.64" x2="1660.28" y2="2097.95" gradientUnits="userSpaceOnUse">
<stop stop-color="#000593"/>
<stop offset="1" stop-color="white"/>
</linearGradient>
<linearGradient id="paint5_linear_305_622" x1="1594.2" y1="186.566" x2="1512.25" y2="175.887" gradientUnits="userSpaceOnUse">
<stop stop-color="#000593"/>
<stop offset="1" stop-color="#000593" stop-opacity="0"/>
</linearGradient>
<linearGradient id="paint6_linear_305_622" x1="1594.85" y1="181.614" x2="1512.9" y2="170.935" gradientUnits="userSpaceOnUse">
<stop stop-color="#080FC4"/>
<stop offset="1" stop-color="white"/>
</linearGradient>
<clipPath id="clip0_305_622">
<rect width="444" height="883" fill="white" transform="translate(593 883) rotate(-180)"/>
</clipPath>
<clipPath id="clip1_305_622">
<rect width="811" height="680" fill="white" transform="translate(1771 1997) rotate(-180)"/>
</clipPath>
</defs>
</svg>
