<svg width="1920" height="477" viewBox="0 0 1920 477" fill="none" xmlns="http://www.w3.org/2000/svg">
<rect opacity="0.3" width="1920" height="477" fill="url(#paint0_radial_303_619)"/>
<g clip-path="url(#clip0_303_619)">
<g opacity="0.7" clip-path="url(#clip1_303_619)">
<circle cx="1512.76" cy="-132.241" r="403.687" transform="rotate(168.393 1512.76 -132.241)" stroke="#000593"/>
<path opacity="0.3" d="M1146.8 -57.276C1102.63 -272.299 1231.09 -479.558 1432.62 -520.95C1634.15 -562.342 1833.9 -422.497 1878.07 -207.474C1922.23 7.54955 1793.77 214.808 1592.24 256.2C1390.71 297.593 1190.96 157.747 1146.8 -57.276Z" stroke="url(#paint1_linear_303_619)" stroke-width="15"/>
<path d="M1171.2 -61.6756C1130.06 -261.964 1249.71 -455.701 1438.36 -494.45C1627.02 -533.198 1813.34 -402.305 1854.48 -202.017C1895.62 -1.72877 1775.97 192.008 1587.32 230.757C1398.66 269.506 1212.34 138.613 1171.2 -61.6756Z" stroke="#6AB6E8"/>
<path d="M1224.59 -72.6406C1188.88 -246.48 1293.1 -408.976 1449.33 -441.064C1605.55 -473.152 1765.39 -364.891 1801.1 -191.052C1836.8 -17.2124 1732.58 145.284 1576.35 177.372C1420.13 209.459 1260.29 101.199 1224.59 -72.6406Z" stroke="url(#paint2_linear_303_619)" stroke-opacity="0.5" stroke-width="110"/>
<path d="M1171.2 -61.6756C1130.06 -261.964 1249.71 -455.701 1438.36 -494.45C1627.02 -533.198 1813.34 -402.305 1854.48 -202.017C1895.62 -1.72877 1775.97 192.008 1587.32 230.757C1398.66 269.506 1212.34 138.613 1171.2 -61.6756Z" stroke="#000593"/>
<path d="M1241.86 -76.1879C1208.62 -238.034 1304.15 -394.334 1455.16 -425.35C1606.17 -456.366 1755.58 -350.377 1788.82 -188.531C1822.07 -26.6842 1726.53 129.615 1575.52 160.631C1424.51 191.648 1275.1 85.6587 1241.86 -76.1879Z" stroke="#000593"/>
</g>
<g opacity="0.8" clip-path="url(#clip2_303_619)">
<g opacity="0.7">
<circle cx="192.242" cy="569.241" r="475.675" transform="rotate(138.475 192.242 569.241)" stroke="#000593"/>
<path opacity="0.3" d="M-138.396 861.716C-310.279 667.61 -300.948 379.641 -118.881 218.418C63.1849 57.196 350.167 82.7743 522.051 276.88C693.935 470.986 684.603 758.955 502.537 920.177C320.47 1081.4 33.4878 1055.82 -138.396 861.716Z" stroke="url(#paint3_linear_303_619)" stroke-width="15"/>
<path d="M-115.128 842.057C-274.853 661.681 -266.526 393.494 -96.6171 243.037C73.2921 92.5795 340.517 116.762 500.242 297.137C659.968 477.513 651.641 745.701 481.731 896.158C311.822 1046.62 44.5973 1022.43 -115.128 842.057Z" stroke="#6AB6E8"/>
<path d="M-74.326 805.926C-216.151 645.765 -205.609 412.347 -60.4863 283.839C84.6366 155.33 317.615 173.107 459.44 333.268C601.266 493.429 590.723 726.847 445.601 855.356C300.478 983.864 67.4992 966.088 -74.326 805.926Z" stroke="url(#paint4_linear_303_619)" stroke-opacity="0.5" stroke-width="110"/>
<path d="M-115.128 842.057C-274.853 661.681 -266.526 393.494 -96.6171 243.037C73.2921 92.5795 340.517 116.762 500.242 297.137C659.968 477.513 651.641 745.701 481.731 896.158C311.822 1046.62 44.5973 1022.43 -115.128 842.057Z" stroke="#000593"/>
<path d="M-51.5058 785.719C-180.58 639.957 -174.873 424.164 -38.8612 303.723C97.1507 183.283 312.049 203.727 441.123 349.489C570.197 495.25 564.491 711.043 428.479 831.484C292.467 951.925 77.5684 931.481 -51.5058 785.719Z" stroke="#000593"/>
</g>
</g>
<g opacity="0.78">
<g opacity="0.6">
<mask id="path-14-inside-1_303_619" fill="white">
<path fill-rule="evenodd" clip-rule="evenodd" d="M936.912 44.663L933.764 68.8167L963.094 72.6387L959.384 101.106L983.538 104.253L987.248 75.7863L1015.71 79.4958L1018.86 55.3421L990.395 51.6325L993.348 28.9685L969.195 25.821L966.241 48.485L936.912 44.663Z"/>
</mask>
<path fill-rule="evenodd" clip-rule="evenodd" d="M936.912 44.663L933.764 68.8167L963.094 72.6387L959.384 101.106L983.538 104.253L987.248 75.7863L1015.71 79.4958L1018.86 55.3421L990.395 51.6325L993.348 28.9685L969.195 25.821L966.241 48.485L936.912 44.663Z" fill="url(#paint5_linear_303_619)" fill-opacity="0.5"/>
<path d="M933.764 68.8167L932.773 68.6875L932.643 69.6791L933.635 69.8084L933.764 68.8167ZM936.912 44.663L937.041 43.6714L936.049 43.5421L935.92 44.5338L936.912 44.663ZM963.094 72.6387L964.085 72.7679L964.215 71.7763L963.223 71.6471L963.094 72.6387ZM959.384 101.106L958.393 100.976L958.263 101.968L959.255 102.097L959.384 101.106ZM983.538 104.253L983.409 105.245L984.4 105.374L984.53 104.382L983.538 104.253ZM987.248 75.7863L987.377 74.7946L986.385 74.6654L986.256 75.657L987.248 75.7863ZM1015.71 79.4958L1015.59 80.4874L1016.58 80.6167L1016.71 79.6251L1015.71 79.4958ZM1018.86 55.3421L1019.85 55.4713L1019.98 54.4797L1018.99 54.3505L1018.86 55.3421ZM990.395 51.6325L989.403 51.5033L989.274 52.4949L990.266 52.6241L990.395 51.6325ZM993.348 28.9685L994.34 29.0978L994.469 28.1061L993.478 27.9769L993.348 28.9685ZM969.195 25.821L969.324 24.8294L968.332 24.7002L968.203 25.6918L969.195 25.821ZM966.241 48.485L966.112 49.4766L967.104 49.6058L967.233 48.6142L966.241 48.485ZM934.756 68.946L937.903 44.7922L935.92 44.5338L932.773 68.6875L934.756 68.946ZM963.223 71.6471L933.893 67.8251L933.635 69.8084L962.965 73.6303L963.223 71.6471ZM960.376 101.235L964.085 72.7679L962.102 72.5095L958.393 100.976L960.376 101.235ZM983.667 103.262L959.513 100.114L959.255 102.097L983.409 105.245L983.667 103.262ZM986.256 75.657L982.546 104.124L984.53 104.382L988.239 75.9155L986.256 75.657ZM1015.84 78.5042L987.377 74.7946L987.118 76.7779L1015.59 80.4874L1015.84 78.5042ZM1017.87 55.2129L1014.72 79.3666L1016.71 79.6251L1019.85 55.4713L1017.87 55.2129ZM990.266 52.6241L1018.73 56.3337L1018.99 54.3505L990.524 50.6409L990.266 52.6241ZM992.357 28.8393L989.403 51.5033L991.387 51.7617L994.34 29.0978L992.357 28.8393ZM969.066 26.8126L993.219 29.9602L993.478 27.9769L969.324 24.8294L969.066 26.8126ZM967.233 48.6142L970.186 25.9502L968.203 25.6918L965.25 48.3557L967.233 48.6142ZM936.783 45.6546L966.112 49.4766L966.371 47.4934L937.041 43.6714L936.783 45.6546Z" fill="#000593" mask="url(#path-14-inside-1_303_619)"/>
</g>
<g opacity="0.6">
<mask id="path-16-inside-2_303_619" fill="white">
<path fill-rule="evenodd" clip-rule="evenodd" d="M935.675 54.1522L932.527 78.306L961.857 82.1279L958.034 111.458L982.188 114.605L983.425 105.116L983.425 105.116L986.011 85.2755L1014.48 88.9851L1015.71 79.4959L1015.71 79.4959L1018.86 55.3421L990.395 51.6325L993.306 29.2925L969.152 26.1449L968.601 30.3701L968.601 30.3701L966.241 48.485L936.912 44.6631L935.675 54.1522L935.675 54.1522Z"/>
</mask>
<path d="M932.527 78.306L931.535 78.1767L931.406 79.1684L932.398 79.2976L932.527 78.306ZM935.675 54.1522L935.804 53.1606L934.812 53.0314L934.683 54.023L935.675 54.1522ZM961.857 82.1279L962.848 82.2572L962.977 81.2655L961.986 81.1363L961.857 82.1279ZM958.034 111.458L957.043 111.328L956.914 112.32L957.905 112.449L958.034 111.458ZM982.188 114.605L982.059 115.597L983.051 115.726L983.18 114.734L982.188 114.605ZM983.425 105.116L983.554 104.124L982.562 103.995L982.433 104.987L983.425 105.116ZM983.425 105.116L983.296 106.108L984.287 106.237L984.417 105.245L983.425 105.116ZM986.011 85.2755L986.14 84.2839L985.148 84.1547L985.019 85.1463L986.011 85.2755ZM1014.48 88.9851L1014.35 89.9767L1015.34 90.1059L1015.47 89.1143L1014.48 88.9851ZM1015.71 79.4959L1015.84 78.5042L1014.85 78.375L1014.72 79.3666L1015.71 79.4959ZM1015.71 79.4959L1015.59 80.4875L1016.58 80.6167L1016.71 79.6251L1015.71 79.4959ZM1018.86 55.3421L1019.85 55.4714L1019.98 54.4798L1018.99 54.3505L1018.86 55.3421ZM990.395 51.6325L989.403 51.5033L989.274 52.4949L990.265 52.6242L990.395 51.6325ZM993.306 29.2925L994.297 29.4217L994.427 28.4301L993.435 28.3008L993.306 29.2925ZM969.152 26.1449L969.281 25.1533L968.29 25.0241L968.16 26.0157L969.152 26.1449ZM968.601 30.3701L968.472 31.3617L969.464 31.491L969.593 30.4993L968.601 30.3701ZM968.601 30.3701L968.73 29.3785L967.739 29.2493L967.61 30.2409L968.601 30.3701ZM966.241 48.485L966.111 49.4766L967.103 49.6058L967.232 48.6142L966.241 48.485ZM936.912 44.6631L937.041 43.6714L936.049 43.5422L935.92 44.5338L936.912 44.6631ZM935.675 54.1522L935.546 55.1439L936.537 55.2731L936.667 54.2815L935.675 54.1522ZM933.519 78.4352L936.666 54.2814L934.683 54.023L931.535 78.1767L933.519 78.4352ZM961.986 81.1363L932.656 77.3143L932.398 79.2976L961.727 83.1196L961.986 81.1363ZM959.026 111.587L962.848 82.2572L960.865 81.9987L957.043 111.328L959.026 111.587ZM982.317 113.614L958.164 110.466L957.905 112.449L982.059 115.597L982.317 113.614ZM982.433 104.987L981.197 114.476L983.18 114.734L984.416 105.245L982.433 104.987ZM983.554 104.124L983.554 104.124L983.296 106.108L983.296 106.108L983.554 104.124ZM985.019 85.1463L982.433 104.987L984.417 105.245L987.002 85.4047L985.019 85.1463ZM1014.61 87.9934L986.14 84.2839L985.881 86.2671L1014.35 89.9767L1014.61 87.9934ZM1014.72 79.3666L1013.49 88.8558L1015.47 89.1143L1016.71 79.6251L1014.72 79.3666ZM1015.84 78.5043L1015.84 78.5042L1015.58 80.4875L1015.59 80.4875L1015.84 78.5043ZM1017.87 55.2129L1014.72 79.3667L1016.71 79.6251L1019.85 55.4714L1017.87 55.2129ZM990.265 52.6242L1018.73 56.3338L1018.99 54.3505L990.524 50.6409L990.265 52.6242ZM992.314 29.1632L989.403 51.5033L991.386 51.7618L994.297 29.4217L992.314 29.1632ZM969.023 27.1365L993.177 30.2841L993.435 28.3008L969.281 25.1533L969.023 27.1365ZM969.593 30.4993L970.144 26.2741L968.16 26.0157L967.61 30.2409L969.593 30.4993ZM968.472 31.3617L968.472 31.3617L968.731 29.3785L968.73 29.3785L968.472 31.3617ZM967.232 48.6142L969.593 30.4993L967.61 30.2409L965.249 48.3558L967.232 48.6142ZM936.782 45.6547L966.111 49.4766L966.37 47.4934L937.041 43.6714L936.782 45.6547ZM936.667 54.2815L937.903 44.7923L935.92 44.5338L934.683 54.023L936.667 54.2815ZM935.545 55.1438L935.546 55.1439L935.804 53.1606L935.804 53.1606L935.545 55.1438Z" fill="#000593" mask="url(#path-16-inside-2_303_619)"/>
</g>
</g>
</g>
<g clip-path="url(#clip3_303_619)">
<g opacity="0.78">
<g opacity="0.6">
<mask id="path-18-inside-3_303_619" fill="white">
<path fill-rule="evenodd" clip-rule="evenodd" d="M1022.14 555.849L1057.55 509.103L1000.79 466.102L1042.53 411.008L995.78 375.595L954.043 430.689L898.949 388.952L863.536 435.698L918.63 477.435L885.402 521.297L932.148 556.71L965.376 512.848L1022.14 555.849Z"/>
</mask>
<path fill-rule="evenodd" clip-rule="evenodd" d="M1022.14 555.849L1057.55 509.103L1000.79 466.102L1042.53 411.008L995.78 375.595L954.043 430.689L898.949 388.952L863.536 435.698L918.63 477.435L885.402 521.297L932.148 556.71L965.376 512.848L1022.14 555.849Z" fill="url(#paint6_linear_303_619)" fill-opacity="0.5"/>
<path d="M1057.55 509.103L1058.35 509.707L1058.95 508.91L1058.16 508.306L1057.55 509.103ZM1022.14 555.849L1021.53 556.646L1022.33 557.25L1022.94 556.453L1022.14 555.849ZM1000.79 466.102L999.992 465.498L999.388 466.295L1000.19 466.899L1000.79 466.102ZM1042.53 411.008L1043.32 411.612L1043.93 410.815L1043.13 410.211L1042.53 411.008ZM995.78 375.595L996.384 374.798L995.587 374.194L994.983 374.991L995.78 375.595ZM954.043 430.689L953.439 431.486L954.236 432.09L954.84 431.293L954.043 430.689ZM898.949 388.952L899.553 388.155L898.756 387.551L898.152 388.348L898.949 388.952ZM863.536 435.698L862.739 435.094L862.135 435.891L862.932 436.495L863.536 435.698ZM918.63 477.435L919.427 478.038L920.031 477.241L919.234 476.638L918.63 477.435ZM885.402 521.297L884.604 520.693L884.001 521.49L884.798 522.094L885.402 521.297ZM932.148 556.71L931.544 557.507L932.341 558.111L932.945 557.314L932.148 556.71ZM965.376 512.848L965.98 512.051L965.183 511.447L964.579 512.244L965.376 512.848ZM1056.75 508.499L1021.34 555.245L1022.94 556.453L1058.35 509.707L1056.75 508.499ZM1000.19 466.899L1056.95 509.9L1058.16 508.306L1001.39 465.305L1000.19 466.899ZM1041.73 410.404L999.992 465.498L1001.59 466.706L1043.32 411.612L1041.73 410.404ZM995.176 376.392L1041.92 411.805L1043.13 410.211L996.384 374.798L995.176 376.392ZM954.84 431.293L996.577 376.199L994.983 374.991L953.246 430.085L954.84 431.293ZM898.345 389.749L953.439 431.486L954.647 429.892L899.553 388.155L898.345 389.749ZM864.333 436.301L899.746 389.555L898.152 388.348L862.739 435.094L864.333 436.301ZM919.234 476.638L864.14 434.9L862.932 436.495L918.026 478.232L919.234 476.638ZM886.199 521.901L919.427 478.038L917.833 476.831L884.604 520.693L886.199 521.901ZM932.751 555.913L886.005 520.5L884.798 522.094L931.544 557.507L932.751 555.913ZM964.579 512.244L931.35 556.106L932.945 557.314L966.173 513.451L964.579 512.244ZM1022.74 555.052L965.98 512.051L964.772 513.645L1021.53 556.646L1022.74 555.052Z" fill="#000593" mask="url(#path-18-inside-3_303_619)"/>
</g>
<g opacity="0.6">
<mask id="path-20-inside-4_303_619" fill="white">
<path fill-rule="evenodd" clip-rule="evenodd" d="M1036.05 537.484L1071.46 490.738L1014.7 447.737L1057.7 390.973L1010.96 355.56L997.045 373.926L997.045 373.925L967.956 412.324L912.862 370.587L898.95 388.952L898.949 388.951L863.536 435.697L918.63 477.435L885.876 520.67L932.622 556.083L938.817 547.906L938.818 547.906L965.377 512.848L1022.14 555.848L1036.05 537.484L1036.05 537.484Z"/>
</mask>
<path d="M1071.46 490.738L1072.26 491.342L1072.87 490.545L1072.07 489.941L1071.46 490.738ZM1036.05 537.484L1035.45 538.281L1036.24 538.885L1036.85 538.088L1036.05 537.484ZM1014.7 447.737L1013.91 447.133L1013.3 447.93L1014.1 448.534L1014.7 447.737ZM1057.7 390.973L1058.5 391.577L1059.11 390.78L1058.31 390.176L1057.7 390.973ZM1010.96 355.56L1011.56 354.763L1010.77 354.159L1010.16 354.957L1010.96 355.56ZM997.045 373.926L996.442 374.723L997.239 375.327L997.843 374.53L997.045 373.926ZM997.045 373.925L997.649 373.128L996.852 372.524L996.248 373.321L997.045 373.925ZM967.956 412.324L967.352 413.121L968.149 413.725L968.753 412.928L967.956 412.324ZM912.862 370.587L913.466 369.79L912.669 369.186L912.065 369.983L912.862 370.587ZM898.95 388.952L898.346 389.749L899.143 390.353L899.747 389.556L898.95 388.952ZM898.949 388.951L899.553 388.154L898.756 387.55L898.152 388.347L898.949 388.951ZM863.536 435.697L862.739 435.093L862.135 435.89L862.932 436.494L863.536 435.697ZM918.63 477.435L919.427 478.038L920.031 477.241L919.234 476.637L918.63 477.435ZM885.876 520.67L885.079 520.066L884.475 520.864L885.273 521.467L885.876 520.67ZM932.622 556.083L932.019 556.88L932.816 557.484L933.42 556.687L932.622 556.083ZM938.817 547.906L939.421 547.109L938.624 546.505L938.02 547.302L938.817 547.906ZM938.818 547.906L938.214 548.703L939.011 549.307L939.615 548.51L938.818 547.906ZM965.377 512.848L965.981 512.051L965.183 511.447L964.58 512.244L965.377 512.848ZM1022.14 555.848L1021.53 556.645L1022.33 557.249L1022.94 556.452L1022.14 555.848ZM1036.05 537.484L1036.65 536.687L1035.86 536.083L1035.25 536.88L1036.05 537.484ZM1070.67 490.134L1035.25 536.88L1036.85 538.088L1072.26 491.342L1070.67 490.134ZM1014.1 448.534L1070.86 491.535L1072.07 489.941L1015.31 446.94L1014.1 448.534ZM1056.91 390.37L1013.91 447.133L1015.5 448.341L1058.5 391.577L1056.91 390.37ZM1010.35 356.358L1057.1 391.771L1058.31 390.176L1011.56 354.763L1010.35 356.358ZM997.843 374.53L1011.76 356.164L1010.16 354.957L996.248 373.322L997.843 374.53ZM996.441 374.722L996.442 374.723L997.649 373.129L997.649 373.128L996.441 374.722ZM968.753 412.928L997.842 374.529L996.248 373.321L967.159 411.72L968.753 412.928ZM912.258 371.384L967.352 413.121L968.56 411.527L913.466 369.79L912.258 371.384ZM899.747 389.556L913.659 371.191L912.065 369.983L898.153 388.348L899.747 389.556ZM898.345 389.748L898.346 389.749L899.554 388.155L899.553 388.154L898.345 389.748ZM864.333 436.301L899.746 389.555L898.152 388.347L862.739 435.093L864.333 436.301ZM919.234 476.637L864.14 434.9L862.932 436.494L918.026 478.232L919.234 476.637ZM886.674 521.274L919.427 478.038L917.833 476.831L885.079 520.066L886.674 521.274ZM933.226 555.286L886.48 519.873L885.273 521.467L932.019 556.88L933.226 555.286ZM938.02 547.302L931.825 555.479L933.42 556.687L939.614 548.51L938.02 547.302ZM939.422 547.109L939.421 547.109L938.213 548.703L938.214 548.703L939.422 547.109ZM964.58 512.244L938.021 547.302L939.615 548.51L966.174 513.452L964.58 512.244ZM1022.74 555.051L965.981 512.051L964.773 513.645L1021.53 556.645L1022.74 555.051ZM1035.25 536.88L1021.34 555.245L1022.94 556.452L1036.85 538.087L1035.25 536.88ZM1036.66 536.687L1036.65 536.687L1035.45 538.281L1035.45 538.281L1036.66 536.687Z" fill="#000593" mask="url(#path-20-inside-4_303_619)"/>
</g>
</g>
</g>
<defs>
<radialGradient id="paint0_radial_303_619" cx="0" cy="0" r="1" gradientUnits="userSpaceOnUse" gradientTransform="translate(384 186.136) rotate(8.66253) scale(988.678 1964.56)">
<stop stop-color="#6AB6E8" stop-opacity="0"/>
<stop offset="0.0001" stop-color="#6AB6E8" stop-opacity="0.71"/>
<stop offset="1" stop-color="#6AB6E8"/>
</radialGradient>
<linearGradient id="paint1_linear_303_619" x1="1593.75" y1="263.547" x2="1591.2" y2="245.94" gradientUnits="userSpaceOnUse">
<stop stop-color="#6AB6E8"/>
<stop offset="1" stop-color="#6AB6E8" stop-opacity="0"/>
</linearGradient>
<linearGradient id="paint2_linear_303_619" x1="1587.42" y1="231.247" x2="1438.26" y2="-494.939" gradientUnits="userSpaceOnUse">
<stop stop-color="#6AB6E8"/>
<stop offset="1" stop-color="#000593"/>
</linearGradient>
<linearGradient id="paint3_linear_303_619" x1="507.509" y1="925.792" x2="494.557" y2="909.313" gradientUnits="userSpaceOnUse">
<stop stop-color="#6AB6E8"/>
<stop offset="1" stop-color="#6AB6E8" stop-opacity="0"/>
</linearGradient>
<linearGradient id="paint4_linear_303_619" x1="482.063" y1="896.532" x2="-96.9486" y2="242.662" gradientUnits="userSpaceOnUse">
<stop stop-color="#6AB6E8"/>
<stop offset="1" stop-color="#000593"/>
</linearGradient>
<linearGradient id="paint5_linear_303_619" x1="935.338" y1="56.7399" x2="1017.29" y2="67.419" gradientUnits="userSpaceOnUse">
<stop stop-color="#6AB6E8"/>
<stop offset="1" stop-color="#000593"/>
</linearGradient>
<linearGradient id="paint6_linear_303_619" x1="1039.85" y1="532.476" x2="881.243" y2="412.324" gradientUnits="userSpaceOnUse">
<stop stop-color="#6AB6E8"/>
<stop offset="1" stop-color="#000593"/>
</linearGradient>
<clipPath id="clip0_303_619">
<rect width="1920" height="476" fill="white"/>
</clipPath>
<clipPath id="clip1_303_619">
<rect width="311" height="737" fill="white" transform="translate(1116 302) rotate(-90)"/>
</clipPath>
<clipPath id="clip2_303_619">
<rect width="441" height="1159" fill="white" transform="translate(823 35) rotate(90)"/>
</clipPath>
<clipPath id="clip3_303_619">
<rect width="243" height="126" fill="white" transform="translate(846 351)"/>
</clipPath>
</defs>
</svg>
