<svg width="720" height="937" viewBox="0 0 720 937" fill="none" xmlns="http://www.w3.org/2000/svg">
<g opacity="0.7" clip-path="url(#clip0_162_7698)">
<path d="M-343.37 178.5C-128.11 15.7289 226.804 85.2643 449.34 334.112C671.876 582.959 677.514 916.604 462.254 1079.37C246.994 1242.15 -107.92 1172.61 -330.456 923.764C-552.992 674.916 -558.63 341.272 -343.37 178.5Z" stroke="#000593"/>
<path opacity="0.3" d="M-315.449 209.366C-104.02 49.4916 235.923 105.571 443.652 337.861C651.382 570.151 645.554 887.689 434.124 1047.56C222.695 1207.44 -117.247 1151.36 -324.977 919.069C-532.707 686.779 -526.878 369.241 -315.449 209.366Z" stroke="white" stroke-width="15"/>
<path d="M-288.986 240.044C-91.5798 90.7727 224.322 143.88 416.588 358.878C608.854 573.876 604.498 869.15 407.091 1018.42C209.685 1167.69 -106.217 1114.59 -298.483 899.587C-490.749 684.589 -486.393 389.316 -288.986 240.044Z" stroke="#6AB6E8"/>
<path opacity="0.4" d="M-262.656 269.488C-86.9833 136.651 203.45 179.595 385.082 382.702C566.713 585.808 556.433 856.14 380.761 988.977C205.088 1121.81 -85.345 1078.87 -266.977 875.763C-448.608 672.657 -438.328 402.325 -262.656 269.488Z" stroke="url(#paint0_linear_162_7698)" stroke-opacity="0.5" stroke-width="80"/>
<path opacity="0.3" d="M-288.986 240.044C-91.5798 90.7727 224.322 143.88 416.588 358.878C608.854 573.876 604.498 869.15 407.091 1018.42C209.685 1167.69 -106.217 1114.59 -298.483 899.587C-490.749 684.589 -486.393 389.316 -288.986 240.044Z" stroke="#000593"/>
<path d="M-217.038 320.499C-57.5283 199.884 196.577 241.483 350.511 413.616C504.444 585.749 499.746 823.046 340.236 943.661C180.726 1064.28 -73.38 1022.68 -227.313 850.545C-381.247 678.411 -376.549 441.115 -217.038 320.499Z" stroke="#000593"/>
</g>
<defs>
<linearGradient id="paint0_linear_162_7698" x1="23.7363" y1="672.902" x2="-335.828" y2="202.243" gradientUnits="userSpaceOnUse">
<stop stop-color="#6AB6E8" stop-opacity="0"/>
<stop offset="1" stop-color="#000593"/>
</linearGradient>
<clipPath id="clip0_162_7698">
<rect width="1192" height="936.112" fill="white" transform="translate(-472)"/>
</clipPath>
</defs>
</svg>
