<svg width="1586" height="1049" viewBox="0 0 1586 1049" fill="none" xmlns="http://www.w3.org/2000/svg">
<g opacity="0.7" clip-path="url(#clip0_401_702)">
<path d="M96.4466 786.299C193.969 712.557 354.849 744.021 455.772 856.875C556.694 969.73 559.189 1120.96 461.668 1194.7C364.146 1268.44 203.265 1236.98 102.343 1124.12C1.42017 1011.27 -1.07537 860.041 96.4466 786.299Z" stroke="#000593"/>
<path opacity="0.3" d="M111.666 803.156C205.357 732.31 356.978 756.706 450.141 860.883C543.303 965.06 540.045 1106.57 446.354 1177.42C352.663 1248.26 201.041 1223.87 107.879 1119.69C14.7164 1015.51 17.9744 874.002 111.666 803.156Z" stroke="white" stroke-width="15"/>
<path d="M121.125 814.227C210.557 746.603 353.734 770.632 440.909 868.114C528.084 965.596 526.067 1099.42 436.635 1167.04C347.204 1234.66 204.027 1210.64 116.852 1113.15C29.6765 1015.67 31.6943 881.851 121.125 814.227Z" stroke="#6AB6E8"/>
<path opacity="0.4" d="M147.456 843.671C215.153 792.481 332.862 806.348 409.403 891.938C485.943 977.528 478.002 1086.41 410.305 1137.6C342.608 1188.79 224.899 1174.92 148.358 1089.33C71.8176 1003.74 79.7592 894.861 147.456 843.671Z" stroke="url(#paint0_linear_401_702)" stroke-opacity="0.5" stroke-width="80"/>
<path opacity="0.3" d="M121.125 814.227C210.557 746.603 353.734 770.632 440.909 868.114C528.084 965.596 526.067 1099.42 436.635 1167.04C347.204 1234.66 204.027 1210.64 116.852 1113.15C29.6765 1015.67 31.6943 881.851 121.125 814.227Z" stroke="#000593"/>
<path d="M153.775 850.737C226.01 796.115 341.145 814.925 410.924 892.954C480.702 970.982 478.533 1078.49 406.297 1133.12C334.061 1187.74 218.926 1168.93 149.148 1090.9C79.3694 1012.87 81.5389 905.359 153.775 850.737Z" stroke="#000593"/>
</g>
<g opacity="0.7" clip-path="url(#clip1_401_702)">
<path d="M1502.38 164.9C1530.63 234.472 1486.4 324.975 1403.31 366.954C1320.23 408.933 1230.08 386.323 1201.84 316.751C1173.59 247.179 1217.82 156.676 1300.91 114.697C1383.99 72.7173 1474.14 95.3279 1502.38 164.9Z" stroke="#000593"/>
<path opacity="0.3" d="M1487.54 172.475C1513.97 237.598 1476.53 322.221 1400.82 360.474C1325.1 398.728 1243.39 374.31 1216.95 309.188C1190.52 244.065 1227.96 159.442 1303.67 121.189C1379.39 82.9354 1461.1 107.353 1487.54 172.475Z" stroke="white" stroke-width="15"/>
<path d="M1481.85 175.12C1507.75 238.918 1470.75 320.079 1399 356.331C1327.25 392.583 1248.16 370.076 1222.26 306.278C1196.36 242.48 1233.37 161.319 1305.12 125.067C1376.87 88.8152 1455.95 111.322 1481.85 175.12Z" stroke="#6AB6E8"/>
<path opacity="0.4" d="M1446.6 192.933C1462.25 231.484 1441.65 290.674 1384.14 319.732C1326.63 348.79 1273.17 327.016 1257.52 288.465C1241.87 249.915 1262.46 190.724 1319.97 161.666C1377.49 132.609 1430.95 154.382 1446.6 192.933Z" stroke="url(#paint1_linear_401_702)" stroke-opacity="0.5" stroke-width="80"/>
<path opacity="0.3" d="M1481.85 175.12C1507.75 238.918 1470.75 320.079 1399 356.331C1327.25 392.583 1248.16 370.076 1222.26 306.278C1196.36 242.48 1233.37 161.319 1305.12 125.067C1376.87 88.8152 1455.95 111.322 1481.85 175.12Z" stroke="#000593"/>
<path d="M1454.96 188.71C1475.87 240.219 1446.43 305.544 1389.01 334.554C1331.6 363.564 1268.17 345.159 1247.26 293.65C1226.35 242.141 1255.78 176.815 1313.2 147.806C1370.62 118.796 1434.04 137.201 1454.96 188.71Z" stroke="#000593"/>
</g>
<defs>
<linearGradient id="paint0_linear_401_702" x1="262.854" y1="1010.45" x2="99.687" y2="796.87" gradientUnits="userSpaceOnUse">
<stop stop-color="#6AB6E8" stop-opacity="0"/>
<stop offset="1" stop-color="#000593"/>
</linearGradient>
<linearGradient id="paint1_linear_401_702" x1="1342.83" y1="228.018" x2="1495.76" y2="165.056" gradientUnits="userSpaceOnUse">
<stop stop-color="#6AB6E8" stop-opacity="0"/>
<stop offset="1" stop-color="#000593"/>
</linearGradient>
<clipPath id="clip0_401_702">
<rect width="714" height="397" fill="white" transform="translate(-147 652)"/>
</clipPath>
<clipPath id="clip1_401_702">
<rect width="385.903" height="363.507" fill="white" transform="translate(1586 94.0826) rotate(105)"/>
</clipPath>
</defs>
</svg>
